<?xml version="1.0" standalone="no"?>
<!DOCTYPE svg PUBLIC "-//W3C//DTD SVG 20010904//EN"
 "http://www.w3.org/TR/2001/REC-SVG-20010904/DTD/svg10.dtd">
<svg version="1.0" xmlns="http://www.w3.org/2000/svg"
 width="1080.000000pt" height="1440.000000pt" viewBox="0 0 1080.000000 1440.000000"
 preserveAspectRatio="xMidYMid meet">

<g transform="translate(0.000000,1440.000000) scale(0.100000,-0.100000)"
fill="#000000" stroke="none">
<path d="M0 12581 c0 -40 0 -40 29 -30 50 18 57 35 22 53 -44 23 -51 20 -51
-23z"/>
<path d="M0 12380 c0 -38 4 -70 10 -70 18 0 50 44 50 70 0 24 -35 70 -53 70
-4 0 -7 -31 -7 -70z"/>
<path d="M10657 12099 c-14 -8 -16 -14 -6 -25 16 -20 -8 -47 -36 -40 -23 6
-92 -26 -113 -52 -6 -9 -9 -25 -6 -36 15 -51 40 -97 60 -110 11 -8 24 -28 27
-45 4 -18 13 -31 21 -31 8 0 16 -4 18 -10 2 -5 20 -11 41 -13 20 -2 46 -12 56
-21 18 -17 21 -17 45 -1 35 23 37 37 34 200 l-3 140 -35 3 c-25 2 -38 9 -45
25 -12 25 -32 31 -58 16z"/>
<path d="M0 11275 c0 -38 10 -44 34 -19 19 19 20 26 4 42 -23 23 -38 13 -38
-23z"/>
<path d="M10670 11271 c0 -17 -5 -33 -10 -36 -8 -5 -7 -11 1 -21 6 -8 8 -14 3
-14 -5 0 6 -10 24 -21 35 -23 40 -42 17 -65 -21 -21 -19 -44 3 -44 21 0 52
-30 52 -50 0 -9 7 -6 20 8 17 18 20 35 20 126 l0 104 -34 21 c-18 12 -47 21
-65 21 -28 0 -31 -3 -31 -29z"/>
<path d="M171 11232 c-58 -26 -65 -32 -82 -76 -11 -26 -17 -52 -14 -57 7 -10
-5 -12 -47 -9 -30 2 -37 -17 -16 -38 10 -10 10 -17 0 -32 -14 -23 -18 -560 -4
-560 33 0 77 78 114 200 5 19 16 42 24 51 8 8 14 19 14 23 0 4 7 14 15 23 11
10 14 25 9 48 -9 48 3 75 32 75 29 0 99 60 121 104 8 17 25 41 36 54 12 13 26
37 32 55 9 27 8 38 -9 67 -10 19 -22 49 -25 65 -7 29 -8 30 -71 32 -52 2 -77
-3 -129 -25z"/>
<path d="M10303 11220 c3 -11 1 -22 -3 -25 -4 -3 -8 -27 -8 -54 -1 -41 4 -54
30 -81 30 -32 32 -47 13 -106 -9 -28 19 -56 54 -53 43 3 61 0 61 -12 0 -7 15
-27 33 -44 19 -18 41 -48 50 -67 26 -54 39 -61 104 -54 32 4 63 3 68 -1 6 -5
17 -27 24 -49 12 -36 41 -64 67 -64 4 0 3 42 0 93 -3 50 -6 103 -7 117 0 13
-10 37 -20 52 -13 18 -18 35 -13 52 10 41 -11 66 -56 66 -21 0 -41 4 -45 9 -3
6 -26 13 -51 17 -36 5 -48 12 -59 35 -8 15 -15 37 -15 47 0 15 -9 21 -40 26
-42 7 -51 13 -80 64 -12 19 -28 32 -39 32 -11 0 -23 5 -26 10 -3 6 -15 10 -27
10 -15 0 -19 -5 -15 -20z"/>
<path d="M10125 11210 c-4 -6 -3 -30 1 -53 4 -23 8 -49 9 -57 4 -33 17 -60 30
-60 8 0 20 -8 27 -18 7 -10 20 -21 28 -24 12 -4 16 9 18 80 3 84 3 85 -28 114
-31 28 -73 37 -85 18z"/>
<path d="M10607 11191 c-29 -30 -35 -51 -14 -51 18 0 57 54 49 67 -5 7 -17 1
-35 -16z"/>
<path d="M10440 10670 c-19 -12 -4 -39 33 -60 23 -13 28 -13 46 4 21 19 27 41
14 49 -20 11 -80 16 -93 7z"/>
<path d="M10754 10515 c-18 -19 -37 -35 -41 -35 -23 0 -53 -150 -35 -177 5 -8
26 -10 65 -6 l57 6 0 123 c0 68 -3 124 -6 124 -4 0 -21 -16 -40 -35z"/>
<path d="M10505 10342 c-13 -13 -3 -22 25 -22 19 0 30 5 30 14 0 13 -43 20
-55 8z"/>
<path d="M33 10224 c-3 -8 -1 -29 4 -47 7 -27 14 -32 38 -32 40 0 42 22 6 63
-32 36 -39 39 -48 16z"/>
<path d="M10120 10135 c0 -20 5 -25 24 -25 37 0 56 10 56 31 0 15 -7 19 -40
19 -36 0 -40 -2 -40 -25z"/>
<path d="M0 6960 c0 -2784 2 -3140 15 -3140 19 0 19 -19 0 -26 -13 -5 -15
-156 -15 -1274 l0 -1268 269 -7 c148 -4 273 -5 279 -1 5 3 57 6 116 7 80 1
112 -3 130 -14 29 -20 29 -46 -1 -58 -32 -12 -197 -26 -455 -39 -121 -6 -241
-17 -273 -25 -31 -8 -58 -15 -60 -15 -3 0 -5 -29 -5 -65 0 -36 4 -65 9 -65 4
0 33 5 62 11 135 26 642 29 739 4 48 -12 83 -13 211 -5 85 6 193 17 241 25 48
9 115 17 150 20 35 2 93 11 131 21 62 15 115 13 92 -4 -6 -4 -10 -14 -10 -22
0 -10 -12 -16 -35 -18 -42 -3 -90 -21 -90 -33 0 -5 -12 -9 -27 -9 -17 0 -46
-14 -71 -35 -45 -35 -82 -51 -187 -79 -84 -23 -690 -31 -780 -11 -33 8 -127
19 -210 24 -82 6 -167 13 -187 17 l-38 7 0 -112 0 -111 43 -2 c23 -1 63 0 88
1 26 2 50 -2 53 -8 4 -6 3 -11 -2 -11 -6 0 -8 -8 -6 -17 6 -29 -73 -73 -130
-73 l-46 0 0 -275 0 -275 606 0 c597 0 606 0 611 20 5 18 14 20 83 20 64 0 80
-3 95 -20 13 -15 31 -20 66 -20 26 0 49 5 51 11 2 6 -8 24 -23 40 -26 27 -32
29 -130 34 -107 5 -113 5 -164 2 -22 -1 -32 4 -39 19 -14 31 -67 56 -102 50
-16 -4 -24 -4 -17 0 7 3 9 12 6 20 -3 9 3 22 16 31 12 8 20 20 18 27 -3 7 7
26 22 44 22 26 36 32 91 40 36 5 72 12 80 16 22 9 38 -5 41 -39 4 -27 1 -30
-36 -37 -119 -23 -155 -33 -155 -43 0 -6 28 -17 63 -24 34 -7 76 -17 93 -23
45 -16 122 -2 149 28 12 13 26 24 31 24 5 0 16 9 24 20 8 11 20 20 27 20 7 0
13 5 13 10 0 6 -7 10 -15 10 -8 0 -15 7 -15 15 0 10 10 15 28 15 36 0 97 29
85 41 -5 5 -33 12 -63 17 l-55 8 30 18 c26 15 27 17 6 12 -13 -3 -37 -2 -53 1
-25 5 -29 10 -25 29 4 21 0 24 -27 25 -17 1 -37 1 -43 0 -20 -3 -15 19 8 38
18 14 20 21 11 38 -8 14 -8 23 0 31 24 24 78 10 78 -19 0 -15 7 -19 36 -19 31
0 36 3 31 19 -4 16 2 20 42 23 25 3 52 0 59 -5 17 -14 65 36 81 84 6 20 27 48
46 64 19 15 35 36 35 46 0 11 8 23 17 26 10 4 21 11 25 17 5 7 11 7 20 -2 11
-11 10 -16 -4 -26 -18 -13 -24 -36 -10 -36 4 0 12 -10 17 -22 8 -19 18 -23 55
-23 l45 0 0 40 c0 59 10 68 60 60 34 -5 50 -1 76 15 40 24 87 26 95 5 8 -20
68 -20 84 0 20 24 5 30 -81 34 -43 1 -79 7 -79 12 0 5 10 10 23 10 12 1 51 3
87 5 36 2 103 6 150 8 108 6 130 12 130 40 0 13 3 25 6 29 11 11 54 -16 54
-34 0 -24 35 -33 117 -29 84 3 173 4 318 1 66 -1 158 0 205 3 47 3 91 6 98 6
6 0 12 4 12 9 0 6 -20 13 -45 17 -55 8 -62 17 -30 38 28 18 120 23 109 5 -4
-8 3 -9 22 -6 16 4 58 7 94 9 l65 3 2 -40 c1 -22 7 -157 12 -300 6 -143 12
-280 15 -305 2 -25 10 -109 17 -187 l12 -143 713 0 712 0 8 48 7 47 10 -47 9
-48 697 0 696 0 38 238 c20 130 40 262 44 292 3 30 13 66 22 80 10 14 18 56
22 107 3 45 8 85 12 89 4 4 14 1 24 -7 11 -9 14 -10 9 -1 -4 6 -2 12 3 12 6 0
11 -5 11 -11 0 -7 11 -8 33 -3 44 11 118 6 136 -9 8 -7 40 -11 77 -10 49 1 66
-2 73 -14 8 -16 110 -42 163 -43 21 0 29 6 34 26 4 14 2 30 -5 37 -27 27 3
147 42 164 35 15 56 4 77 -40 25 -51 25 -95 0 -127 -29 -38 -25 -67 13 -90 19
-13 40 -18 52 -14 50 15 86 16 110 0 13 -9 30 -16 37 -16 7 0 29 -14 48 -30
47 -41 100 -39 111 3 8 31 -6 94 -28 119 -13 15 -12 19 6 37 12 12 27 21 35
21 7 0 19 6 25 14 10 12 1 26 -48 75 -34 32 -61 66 -61 74 0 8 12 23 27 32 25
16 39 17 192 6 185 -13 313 -31 393 -54 29 -9 65 -18 79 -21 14 -3 42 -17 63
-31 36 -25 86 -34 86 -16 0 5 26 15 58 22 81 17 362 -2 452 -30 42 -13 92 -21
141 -21 66 0 78 -3 97 -23 12 -13 22 -28 22 -34 0 -38 -90 -46 -207 -19 -82
19 -339 36 -370 25 -13 -5 -23 -15 -23 -23 0 -25 58 -40 434 -112 97 -19 155
-25 195 -21 34 4 82 0 121 -9 81 -18 282 -37 375 -36 39 0 108 1 155 1 53 1
104 -5 135 -15 59 -18 137 -30 300 -44 122 -11 174 -18 300 -44 39 -7 103 -17
143 -21 l72 -7 0 2680 c0 2544 -1 2681 -17 2685 -17 4 -17 5 0 6 16 1 17 41
17 697 l0 695 -22 -6 c-30 -9 -49 -35 -43 -56 8 -24 -14 -66 -37 -73 -27 -7
-55 12 -73 50 -26 56 -22 62 63 94 17 7 32 18 32 25 0 7 18 20 40 29 l40 16 0
994 c0 786 -3 995 -12 999 -10 4 -10 7 0 18 9 10 12 95 12 352 l0 339 -40 -4
c-29 -2 -40 0 -40 10 0 18 -24 10 -28 -9 -1 -8 10 -19 26 -25 19 -8 36 -26 52
-58 l22 -47 -23 -25 c-12 -13 -28 -24 -36 -24 -7 0 -13 -4 -13 -10 0 -5 -5
-10 -11 -10 -6 0 -24 -13 -41 -30 -16 -16 -39 -30 -51 -30 -12 0 -34 -10 -49
-23 -15 -13 -46 -32 -70 -43 -24 -10 -46 -23 -50 -29 -4 -5 -8 -42 -8 -82 0
-39 -4 -74 -9 -78 -19 -11 -104 -10 -109 3 -2 6 -10 12 -18 12 -8 0 -33 9 -55
21 -37 19 -42 19 -64 5 -14 -9 -36 -16 -49 -16 -21 0 -26 -6 -31 -34 -5 -22
-1 -44 9 -64 18 -35 21 -56 6 -47 -6 3 -13 -1 -16 -9 -3 -9 -17 -16 -30 -16
-13 0 -24 -2 -24 -5 0 -3 18 -23 40 -45 33 -33 40 -46 39 -77 -2 -67 -33 -145
-45 -115 -8 16 -45 15 -69 -4 -14 -10 -19 -24 -17 -47 3 -25 -4 -39 -28 -62
-18 -17 -36 -39 -41 -50 -5 -11 -13 -27 -18 -35 -12 -21 -31 -83 -31 -103 0
-9 -4 -17 -10 -17 -5 0 -10 -7 -10 -15 0 -9 -12 -18 -30 -21 -49 -10 -35 -55
27 -87 46 -24 58 -22 100 22 30 30 46 39 76 39 20 1 37 -3 37 -9 0 -7 11 -9
24 -7 14 3 29 2 35 -1 21 -13 -8 -32 -55 -37 -27 -3 -51 -8 -54 -11 -3 -2 -7
-30 -10 -61 -5 -58 -14 -68 -74 -87 -14 -4 -16 -8 -7 -19 7 -8 11 -18 10 -22
-5 -27 3 -34 34 -32 23 2 32 -1 32 -12 0 -8 4 -21 8 -28 11 -17 -1 -52 -18
-52 -8 0 -24 13 -36 30 -17 23 -26 27 -36 19 -7 -7 -33 -11 -58 -11 -25 1 -45
-3 -45 -8 0 -6 -7 -10 -15 -10 -25 0 -27 -43 -6 -98 12 -29 21 -68 21 -87 0
-19 3 -35 8 -35 15 0 32 -52 22 -70 -11 -21 -87 -90 -98 -90 -5 0 -14 -11 -20
-24 -7 -17 -25 -29 -51 -36 -32 -8 -42 -18 -60 -55 -12 -25 -30 -50 -41 -57
-25 -16 -25 -24 0 -31 11 -3 20 -14 20 -24 0 -11 11 -30 25 -43 26 -24 33 -50
14 -50 -15 0 111 -103 143 -117 40 -18 80 -3 100 37 16 31 16 36 2 51 -25 28
-30 121 -8 158 10 17 24 31 31 31 7 0 13 5 13 11 0 6 9 8 20 4 15 -5 20 -2 20
11 0 16 1 16 18 0 13 -11 28 -14 48 -10 22 4 32 1 42 -16 26 -42 -14 -53 -73
-20 -62 35 -63 31 -33 -77 11 -38 16 -43 40 -43 16 0 31 -6 34 -14 3 -8 19
-19 35 -25 39 -13 54 -53 41 -106 -17 -64 -36 -115 -44 -115 -5 0 -8 -11 -8
-25 0 -16 17 -42 48 -74 79 -81 92 -132 42 -169 -17 -13 -30 -29 -30 -36 0
-15 27 -29 39 -21 5 2 14 -14 21 -36 13 -37 12 -41 -12 -67 -13 -15 -33 -46
-43 -69 -15 -36 -22 -43 -47 -43 -22 0 -33 8 -50 35 -24 42 -68 68 -102 59
-19 -4 -30 2 -55 33 -38 46 -45 70 -32 106 9 23 16 27 51 27 34 0 42 4 50 26
14 36 13 42 -15 69 -13 14 -21 25 -17 25 4 0 -1 5 -10 11 -18 10 -42 1 -80
-30 -16 -13 -44 -17 -115 -20 -29 -1 -33 -6 -51 -53 -12 -35 -19 -84 -21 -142
-1 -50 -3 -92 -5 -93 -2 -2 -19 4 -39 14 l-35 18 -7 91 c-7 99 -15 112 -102
171 -31 21 -40 23 -58 13 -36 -19 -95 6 -95 40 0 27 -49 40 -78 22 -9 -7 -10
-15 -3 -35 9 -22 6 -31 -16 -57 -14 -17 -38 -37 -53 -45 l-28 -15 18 -59 c10
-32 16 -68 13 -80 -3 -11 2 -36 11 -55 24 -51 21 -92 -9 -112 -14 -9 -25 -20
-25 -24 0 -13 32 -21 44 -11 12 10 68 7 85 -3 19 -12 61 -119 66 -168 3 -38
11 -58 26 -71 17 -14 19 -20 9 -32 -17 -21 -43 -19 -74 6 -15 12 -48 24 -74
27 -26 3 -51 11 -55 18 -10 18 -36 18 -43 1 -8 -21 -102 -19 -160 4 -60 24
-73 20 -154 -44 -35 -28 -58 -54 -64 -75 -5 -18 -13 -32 -18 -32 -5 0 -6 -4
-3 -10 3 -5 21 -9 40 -8 43 2 48 -3 39 -36 -4 -17 -13 -26 -26 -26 -10 0 -17
-4 -13 -9 3 -5 -1 -29 -10 -53 -20 -58 -19 -72 9 -116 51 -79 98 -119 166
-142 36 -12 71 -26 78 -32 6 -6 12 -32 12 -58 0 -40 -4 -52 -26 -69 -14 -11
-30 -22 -37 -24 -8 -3 -4 -11 10 -21 25 -19 37 -75 34 -162 -1 -43 5 -75 19
-108 12 -29 18 -57 14 -72 -3 -13 -1 -31 6 -38 13 -16 65 -18 93 -4 14 7 24 5
41 -11 12 -12 35 -21 52 -21 26 0 29 -3 29 -31 0 -24 -6 -34 -23 -40 -13 -5
-27 -7 -32 -4 -12 7 -106 -23 -119 -39 -16 -19 -5 -40 29 -53 23 -9 30 -18 30
-37 0 -14 -4 -26 -10 -26 -5 0 -21 -22 -35 -50 -15 -30 -37 -56 -55 -65 -18
-9 -32 -26 -35 -43 -4 -15 -10 -35 -16 -44 -5 -10 -9 -29 -9 -43 0 -37 40 -34
62 5 9 17 25 30 34 30 12 0 15 6 10 24 -8 31 7 41 34 24 25 -16 29 -88 5 -88
-19 0 -38 -36 -30 -60 8 -24 31 -26 51 -5 16 15 62 19 101 9 40 -11 56 -104
18 -104 -8 0 -22 -13 -32 -30 -9 -16 -21 -30 -25 -30 -12 0 -10 -48 2 -55 6
-3 10 -20 10 -37 l0 -31 -50 5 c-32 3 -56 0 -69 -8 -31 -22 -121 1 -121 32 0
6 11 31 25 55 14 24 28 50 31 58 8 15 -17 62 -38 72 -63 31 -70 32 -106 23
-33 -8 -37 -13 -40 -43 -3 -27 2 -38 23 -55 23 -19 25 -24 16 -49 -6 -15 -17
-30 -25 -33 -18 -7 -56 -69 -56 -90 0 -9 7 -22 15 -30 23 -24 19 -69 -7 -81
-20 -9 -28 -5 -55 24 -31 32 -35 33 -82 27 -43 -5 -51 -11 -62 -36 -13 -32
-36 -48 -71 -48 -32 0 -48 18 -48 55 0 17 -4 35 -9 40 -12 14 -22 78 -13 91
14 21 51 34 99 34 61 1 127 36 131 71 5 38 -25 96 -58 116 -29 17 -39 38 -21
45 5 2 12 18 16 35 6 29 4 33 -14 33 -12 0 -21 -4 -21 -9 0 -15 -55 7 -76 30
-13 15 -17 35 -16 77 1 55 3 59 49 101 26 24 47 50 45 58 -2 8 2 20 8 27 16
20 -13 38 -71 44 -39 4 -54 11 -74 34 -14 16 -25 42 -25 58 0 42 -54 95 -118
116 -32 10 -65 30 -85 50 -17 19 -39 34 -48 34 -17 0 -49 -30 -49 -47 0 -11
-40 -50 -68 -67 -10 -6 -42 -24 -70 -41 -29 -17 -52 -37 -52 -46 0 -9 16 -24
36 -34 43 -20 97 -13 122 16 10 12 29 19 52 19 19 0 44 7 54 15 11 8 34 15 52
15 28 0 32 -4 36 -30 5 -32 5 -31 -70 -100 -23 -20 -32 -37 -30 -52 4 -30 -30
-48 -91 -48 -37 0 -56 -7 -89 -31 -57 -42 -100 -38 -123 10 -16 35 -47 55 -65
43 -19 -13 -52 -68 -55 -92 -5 -33 -51 -40 -71 -11 -8 12 -17 19 -19 17 -2 -3
-2 20 -1 50 4 61 -13 98 -49 109 -26 9 -48 29 -72 67 -14 22 -14 28 -2 38 16
13 16 69 0 71 -5 1 -36 2 -67 4 l-58 2 -1 -51 c-1 -73 1 -127 7 -157 l5 -27
51 16 c48 14 52 13 65 -4 21 -29 16 -68 -13 -95 -14 -13 -29 -24 -32 -23 -4 1
-17 -5 -29 -14 -31 -19 -29 -53 4 -93 36 -42 34 -97 -7 -177 -29 -58 -30 -62
-30 -208 0 -193 -13 -296 -50 -385 -29 -73 -30 -89 -5 -89 21 0 25 -14 13 -47
-10 -26 -8 -37 15 -83 15 -30 27 -69 27 -87 0 -21 11 -48 29 -74 51 -69 60
-117 57 -279 -1 -80 -6 -153 -10 -162 -6 -13 -20 -18 -52 -18 -39 0 -46 3 -55
27 -5 15 -9 35 -7 46 3 18 4 18 30 -2 44 -35 55 -23 14 16 -20 20 -46 54 -57
74 -12 24 -36 48 -64 65 l-46 26 -167 -7 c-92 -4 -214 -16 -271 -26 -149 -27
-141 -29 -141 36 0 53 2 57 47 100 l47 45 -43 0 c-34 0 -43 -4 -51 -23 -5 -13
-9 -16 -10 -7 0 13 -1 13 -10 0 -9 -13 -11 -13 -21 0 -8 11 -9 9 -3 -10 4 -14
9 -115 10 -225 1 -110 6 -239 10 -287 4 -57 2 -120 -6 -180 -7 -51 -13 -188
-14 -305 -1 -159 -4 -215 -14 -225 -10 -10 -14 -10 -22 1 -7 12 -11 12 -25 -2
-9 -10 -20 -15 -25 -12 -5 3 -17 -5 -27 -18 l-17 -24 -38 21 c-21 11 -38 23
-38 28 0 4 -26 8 -57 8 -32 0 -75 3 -96 6 -32 6 -37 10 -31 27 5 17 3 19 -12
12 -43 -18 -172 -47 -374 -85 -232 -43 -246 -48 -272 -85 -27 -40 -47 -51 -61
-33 -6 9 -7 8 -3 -4 10 -33 -70 -36 -199 -7 -33 7 -62 16 -65 19 -3 3 -21 6
-40 8 -19 2 -39 8 -45 13 -5 5 -24 9 -43 9 -22 0 -31 4 -26 11 4 8 -1 9 -16 4
-16 -5 -20 -4 -15 5 4 7 1 16 -6 21 -23 14 -32 10 -18 -7 12 -14 11 -16 -6
-12 -11 2 -19 10 -17 16 1 7 -7 12 -18 12 -11 0 -20 5 -20 10 0 6 -9 10 -20
10 -11 0 -20 4 -20 9 0 11 -93 1 -101 -12 -4 -5 -9 -5 -14 3 -4 6 -21 11 -39
10 -17 -1 -33 -1 -36 0 -3 1 -102 3 -220 4 -174 2 -221 5 -245 18 -17 9 -94
35 -172 57 -197 57 -315 110 -478 216 -27 18 -60 36 -72 40 -13 3 -23 11 -23
16 0 5 -3 8 -7 7 -14 -4 -67 29 -101 61 -21 21 -32 26 -32 16 0 -8 -7 -15 -16
-15 -13 0 -15 -8 -10 -40 3 -22 9 -58 12 -80 3 -22 10 -40 15 -40 5 0 9 -16 9
-35 0 -19 10 -63 21 -97 15 -43 18 -63 10 -66 -14 -5 -14 -35 -1 -48 6 -6 13
-32 15 -58 2 -26 11 -58 19 -71 9 -14 16 -32 16 -42 0 -10 9 -31 20 -48 11
-16 20 -40 20 -53 0 -26 34 -94 43 -86 15 16 -20 -74 -36 -91 -19 -20 -27 -37
-42 -85 -7 -23 -7 -24 10 -10 11 8 16 11 13 5 -15 -25 -98 -208 -98 -215 0 -5
-5 -12 -12 -16 -8 -5 -9 -1 -5 12 6 17 6 17 -6 3 -10 -13 -16 -14 -28 -5 -9 6
-14 17 -11 25 3 10 -2 13 -21 9 -18 -4 -24 -1 -20 9 3 7 0 13 -7 13 -7 0 -9 8
-5 19 6 21 -13 71 -28 71 -5 0 -7 -6 -4 -13 19 -47 20 -50 9 -43 -25 15 -41
78 -52 201 -10 124 -38 305 -61 390 -6 22 -11 40 -10 40 1 0 -5 18 -14 39 -12
29 -14 41 -5 46 9 5 9 9 1 14 -6 4 -11 21 -11 37 0 17 -4 28 -10 24 -13 -8
-24 38 -15 64 4 15 2 21 -9 21 -19 0 -28 30 -21 67 4 22 3 23 -3 8 -8 -17 -11
-13 -18 25 -5 25 -7 53 -6 64 1 10 -2 24 -7 30 -13 16 -31 110 -31 161 0 24
-4 45 -10 47 -18 6 -50 276 -50 425 0 120 3 144 17 159 24 24 69 41 128 48 43
5 59 2 110 -24 33 -16 54 -30 48 -30 -22 0 -14 -20 7 -20 18 0 20 -7 20 -80 0
-73 -2 -80 -20 -80 -15 0 -20 -7 -20 -29 0 -16 -2 -44 -5 -62 -3 -21 -2 -27 2
-17 8 16 11 16 46 -9 39 -28 47 -43 22 -43 -21 0 -21 -137 0 -187 8 -19 15
-45 15 -57 0 -34 23 -76 43 -76 9 0 17 -4 17 -10 0 -5 7 -10 15 -10 8 0 15 6
15 13 0 9 3 8 9 -2 15 -23 19 2 5 29 -8 15 -14 19 -14 10 -1 -11 -6 -8 -20 9
-24 28 -25 41 -6 41 8 0 17 10 19 23 4 19 4 19 6 -5 0 -15 7 -31 14 -35 20
-12 29 -82 13 -99 -10 -10 -16 -10 -26 -1 -10 10 -12 8 -6 -6 3 -10 6 -23 6
-28 0 -6 4 -7 10 -4 6 4 7 -1 3 -12 -5 -16 -4 -16 9 -3 8 8 36 89 63 180 54
185 117 373 146 439 56 121 73 191 49 191 -12 0 -40 -65 -40 -94 0 -11 -5 -28
-11 -36 -9 -12 -10 -12 -5 3 3 11 -1 26 -11 35 -12 12 -18 13 -21 4 -2 -6 -8
-12 -13 -12 -6 0 -7 5 -4 11 4 6 1 10 -6 8 -29 -3 -38 3 -72 49 -37 52 -34 51
-215 87 -88 18 -109 18 -206 4 -65 -10 -82 -17 -143 -63 -99 -73 -128 -87
-158 -76 -31 12 -40 46 -26 96 6 22 11 54 11 72 0 45 25 96 67 135 50 47 63
77 63 152 0 58 3 69 26 92 24 24 26 31 20 82 -4 31 -16 86 -27 121 -15 49 -21
105 -26 225 -5 150 -4 168 22 285 15 69 31 147 35 175 10 67 -4 78 -88 69 -81
-7 -117 7 -132 51 -6 17 -7 41 -3 51 6 16 57 88 73 104 3 3 14 18 23 33 17 27
17 31 1 72 -21 56 -38 62 -71 25 -39 -45 -80 -37 -139 27 -22 24 -58 30 -69
13 -3 -5 -21 -10 -38 -10 -42 1 -71 39 -69 92 1 27 -3 41 -14 45 -20 8 -80
-25 -111 -61 -28 -33 -98 -51 -138 -36 -47 18 -85 67 -85 108 0 48 -37 123
-95 191 -25 29 -45 58 -45 65 0 32 -36 46 -121 46 -178 0 -248 59 -133 114 51
24 74 45 74 67 0 28 -19 34 -113 34 -65 0 -90 4 -96 14 -15 24 0 81 30 113 25
28 32 30 70 25 23 -3 55 -15 70 -26 15 -12 39 -20 53 -19 22 2 24 6 19 27 -9
35 -31 56 -83 80 -25 12 -65 33 -90 47 -47 26 -81 26 -110 -2 -23 -22 -82 -61
-115 -77 -16 -8 -40 -26 -52 -41 -13 -14 -29 -26 -37 -26 -7 0 -19 -7 -26 -15
-11 -14 -14 -13 -27 5 -20 29 -52 44 -66 31 -20 -16 -82 2 -83 24 -1 11 -2 26
-3 33 -1 6 -7 12 -15 12 -7 0 -16 10 -20 23 -8 32 -8 37 7 37 8 0 28 7 45 16
29 14 34 14 62 -3 16 -9 30 -21 30 -25 0 -23 46 -2 96 45 56 52 58 55 62 113
2 33 -1 78 -7 101 -10 38 -16 44 -51 53 -46 12 -73 36 -66 57 3 8 6 23 6 34 0
12 11 24 28 32 15 6 33 20 40 29 7 10 21 18 30 18 25 0 80 54 87 84 3 14 7 37
10 50 4 18 22 33 70 57 36 17 70 38 76 45 6 8 18 14 25 14 8 0 14 10 14 25 0
17 9 29 28 39 15 8 47 32 71 54 41 37 45 44 45 90 1 39 -4 56 -21 74 -13 14
-23 37 -23 54 -1 60 -49 85 -72 37 -12 -25 -18 -27 -73 -29 -34 -1 -72 -5 -85
-9 -14 -5 -34 -10 -45 -11 -61 -8 -120 -33 -139 -59 -12 -16 -49 -56 -84 -90
l-63 -62 7 -75 c6 -71 5 -76 -17 -92 -31 -21 -61 -20 -110 4 -44 23 -58 45
-40 63 6 6 11 18 11 27 0 8 15 38 33 65 40 63 59 104 52 116 -11 17 19 91 48
120 16 16 27 36 24 44 -3 7 -1 16 6 18 8 3 5 17 -11 46 -12 22 -19 41 -15 41
5 0 17 16 27 35 11 19 25 35 32 35 23 0 63 22 69 38 10 27 -18 42 -96 51 -98
13 -120 22 -150 62 -50 69 -97 106 -153 124 -60 19 -68 33 -47 89 15 37 -6 79
-50 104 -39 23 -45 37 -41 102 1 27 18 65 39 91 17 20 39 99 58 204 20 110 32
148 55 175 46 53 8 127 -61 121 -19 -2 -53 45 -45 64 5 15 -60 46 -81 38 -8
-3 -13 -22 -13 -43 0 -32 -6 -43 -30 -60 -31 -22 -80 -22 -80 0 0 15 -50 12
-51 -2 -1 -7 -3 -23 -4 -36 -3 -32 -42 -62 -82 -62 -25 0 -44 10 -77 40 -42
39 -78 51 -91 30 -9 -15 -30 -12 -55 8 -18 14 -20 22 -11 44 10 27 71 56 91
43 5 -3 24 9 40 27 40 44 42 111 5 154 -30 35 -31 52 -5 106 28 59 26 84 -10
103 -28 15 -42 45 -20 45 6 0 10 9 10 21 0 11 9 32 20 46 11 14 20 31 20 37 0
7 14 22 30 34 31 24 40 52 16 52 -27 0 -86 65 -86 94 0 30 8 39 58 75 37 26
40 43 12 89 -24 39 -50 41 -135 12 -32 -11 -80 -20 -106 -20 -40 0 -55 6 -86
32 -21 18 -39 33 -41 34 -9 5 25 44 46 54 20 9 22 13 12 25 -7 8 -27 15 -45
15 -34 0 -75 36 -75 66 0 8 -4 14 -10 14 -7 0 -10 -1053 -10 -3140z m10520
2419 c0 -9 -7 -23 -16 -30 -14 -11 -16 -27 -11 -90 7 -109 10 -112 109 -124
81 -10 83 -11 86 -38 4 -31 -21 -77 -41 -77 -6 0 -28 -16 -48 -35 -20 -19 -39
-32 -41 -29 -3 2 -13 -13 -22 -34 -20 -43 -11 -83 22 -101 28 -15 37 -74 18
-113 -9 -17 -16 -36 -16 -43 0 -17 -44 -35 -71 -28 -35 8 -69 43 -67 67 1 25
-37 92 -57 100 -9 3 -15 19 -15 41 0 19 -5 35 -11 35 -5 0 -7 5 -3 11 4 8 9 8
17 0 6 -6 23 -11 38 -11 22 0 31 8 48 44 18 37 20 50 12 86 -5 24 -19 56 -30
71 -12 16 -21 34 -21 41 0 8 -13 22 -30 31 -16 10 -34 26 -39 36 -9 16 -7 17
14 13 34 -6 32 16 -2 24 -35 9 -99 72 -86 85 13 13 40 14 77 4 21 -6 27 -5 22
4 -5 7 3 21 20 34 44 35 61 42 104 42 30 0 40 -3 40 -16z m220 -109 c0 -13
-29 -32 -40 -25 -14 9 -13 32 3 38 15 5 37 -2 37 -13z m-456 -118 c2 -4 1 -14
-4 -21 -13 -21 -40 -5 -40 24 0 22 3 24 19 15 11 -5 22 -14 25 -18z m100 -108
c22 -9 21 -54 -1 -54 -10 0 -28 -3 -40 -6 -28 -8 -32 20 -6 48 18 20 23 21 47
12z m146 -709 c0 -37 -74 -62 -87 -30 -9 26 23 52 57 47 16 -2 30 -10 30 -17z
m164 -288 c13 -35 0 -58 -38 -68 -46 -13 -97 51 -63 79 37 30 89 24 101 -11z
m-234 -8 c0 -5 -4 -9 -10 -9 -5 0 -10 7 -10 16 0 8 5 12 10 9 6 -3 10 -10 10
-16z m-9660 -18 c0 -5 8 -7 18 -4 22 5 90 -53 93 -82 2 -11 -3 -30 -10 -43 -7
-13 -10 -30 -7 -38 3 -8 1 -14 -4 -14 -6 0 -10 -5 -10 -11 0 -15 -61 -69 -79
-69 -9 0 -12 -8 -8 -26 12 -65 -21 -110 -110 -149 -24 -10 -43 -22 -43 -27 0
-14 -65 -9 -87 7 -40 28 -39 67 6 158 22 46 54 96 70 111 16 16 40 54 52 85
12 31 29 62 37 69 9 6 12 12 6 12 -16 0 40 28 59 29 9 1 17 -3 17 -8z m9533
-145 l24 -24 -23 -11 c-31 -14 -54 -4 -54 23 0 42 19 46 53 12z m-81 -260 c16
-22 16 -28 4 -58 -7 -18 -11 -40 -8 -48 4 -13 3 -13 -11 -1 -10 7 -17 21 -17
30 0 9 -7 26 -15 37 -12 18 -12 24 1 42 19 27 25 27 46 -2z m171 -333 c4 -2 7
-9 7 -15 0 -14 -42 -58 -57 -58 -7 0 -24 -11 -39 -25 -15 -14 -34 -25 -43 -25
-24 0 -52 56 -42 83 12 30 37 51 56 44 8 -4 17 -2 21 4 6 10 77 4 97 -8z m51
-62 c3 -4 19 -11 36 -14 21 -5 30 -12 30 -26 0 -28 -37 -52 -64 -42 -20 8 -49
68 -39 84 6 10 31 9 37 -2z m-1135 -313 c11 -11 14 -10 18 0 6 15 23 6 23 -14
0 -10 -12 -14 -40 -14 -33 0 -40 3 -40 20 0 23 19 26 39 8z m343 -45 c11 -10
18 -30 18 -53 0 -60 -35 -78 -77 -38 -56 53 2 143 59 91z m766 -50 c17 -19 32
-43 32 -53 0 -10 10 -20 24 -24 44 -11 40 -72 -8 -106 -44 -31 -87 -50 -115
-50 -25 0 -29 4 -34 36 -4 21 -1 44 6 55 10 17 8 23 -18 44 -17 13 -39 25 -50
25 -11 0 -27 6 -36 13 -43 32 54 109 126 100 29 -3 49 -14 73 -40z m-815 -185
c12 -45 -43 -65 -67 -25 -9 15 -7 21 8 33 28 20 53 17 59 -8z m973 -74 c-4
-14 -2 -31 3 -38 6 -7 7 -22 4 -35 -5 -20 -10 -22 -41 -17 -20 3 -39 11 -44
18 -13 22 -9 48 10 55 9 4 26 15 36 25 28 25 39 22 32 -8z m-581 -72 c-12 -51
-33 -72 -70 -72 -30 0 -35 3 -35 24 0 34 31 85 55 89 36 6 58 -12 50 -41z
m-777 -44 c17 -17 15 -38 -3 -38 -14 0 -55 34 -55 45 0 10 46 5 58 -7z m1400
-26 c-3 -10 1 -27 8 -37 21 -28 17 -51 -12 -70 -29 -19 -46 -10 -58 32 -5 17
0 27 24 44 16 13 30 29 30 36 0 7 3 13 6 13 4 0 4 -8 2 -18z m-1160 -9 c17 -3
32 -9 32 -14 0 -5 7 -9 15 -9 16 0 19 -17 9 -44 -3 -8 -21 -20 -40 -26 -29
-10 -39 -9 -66 7 -54 31 -56 115 -3 97 11 -3 35 -8 53 -11z m629 -59 c8 -21
-40 -69 -61 -61 -12 5 -15 14 -10 34 4 16 12 31 18 35 19 13 46 9 53 -8z m623
-23 c0 -5 9 -11 20 -14 27 -7 15 -37 -15 -37 -27 0 -49 24 -41 45 6 16 36 21
36 6z m-1013 -13 c15 -7 32 -18 36 -25 4 -7 25 -13 45 -13 73 0 82 -47 25
-117 -38 -47 -40 -53 -42 -166 0 -19 8 -36 26 -51 24 -21 25 -24 12 -59 -11
-32 -17 -37 -46 -37 -39 0 -45 10 -88 136 -17 50 -41 107 -53 126 -12 19 -22
45 -22 56 0 11 -4 24 -10 27 -12 8 -13 55 -1 55 5 0 12 11 15 25 3 13 19 31
34 39 34 19 35 19 69 4z m1028 -184 c14 -15 25 -30 26 -33 7 -41 3 -101 -7
-122 -7 -15 -11 -29 -8 -32 11 -11 -7 -44 -30 -55 -28 -12 -36 -7 -36 22 -1
20 -1 20 -14 3 -7 -9 -20 -15 -28 -12 -16 6 -78 118 -78 140 0 7 20 32 45 56
68 66 93 73 130 33z m-9540 -113 c3 -5 1 -12 -5 -16 -5 -3 -10 1 -10 9 0 18 6
21 15 7z m8415 -180 c0 -12 -20 -25 -27 -18 -7 7 6 27 18 27 5 0 9 -4 9 -9z
m276 -448 c-3 -8 -6 -17 -6 -19 0 -2 -7 -4 -15 -4 -15 0 -21 31 -9 43 11 11
35 -5 30 -20z m337 -135 c-3 -53 -34 -82 -79 -73 -31 5 -34 9 -34 40 0 49 30
77 78 73 36 -3 37 -4 35 -40z m-8515 -81 c3 -25 0 -28 -20 -25 -17 2 -24 11
-26 31 -3 25 0 28 20 25 17 -2 24 -11 26 -31z m6140 -169 c17 -17 15 -36 -14
-103 -13 -33 -30 -72 -35 -87 -6 -15 -19 -30 -29 -33 -10 -3 -30 -17 -46 -31
-27 -25 -29 -26 -80 -14 -28 7 -57 10 -63 6 -6 -4 -14 1 -17 11 -3 10 -9 25
-14 34 -9 17 5 49 22 49 6 0 19 -7 28 -15 23 -21 76 0 90 36 6 15 25 39 41 55
16 15 29 33 29 40 0 15 49 64 64 64 7 0 17 -5 24 -12z m744 -623 c3 -3 2 -20
-1 -38 -8 -36 -44 -50 -55 -22 -11 30 4 65 28 65 13 0 25 -2 28 -5z m-125 -91
c27 -7 47 -55 38 -91 -8 -33 -85 -110 -118 -118 -37 -10 -87 43 -87 90 0 79
86 140 167 119z m982 -97 c6 -8 14 -27 17 -43 5 -25 2 -32 -19 -41 -22 -10
-30 -9 -51 8 -30 24 -33 45 -9 71 19 21 46 23 62 5z m154 -331 c15 -18 28 -45
31 -60 6 -35 -11 -84 -35 -97 -15 -8 -17 -14 -9 -29 14 -26 12 -51 -5 -74 -14
-18 -16 -17 -35 26 -21 48 -42 72 -53 61 -4 -3 -7 -1 -7 5 0 6 -9 14 -20 17
-16 5 -20 15 -20 50 0 28 5 45 14 48 8 3 16 16 18 28 3 23 50 57 79 58 9 1 28
-14 42 -33z m-1068 -72 c46 30 94 15 110 -35 10 -30 -3 -38 -75 -45 -72 -7
-95 -22 -116 -73 -18 -42 -10 -69 23 -82 36 -14 59 -3 77 35 12 25 24 35 46
38 23 4 30 1 30 -13 0 -25 51 -42 101 -34 30 5 44 4 50 -6 15 -24 10 -47 -13
-55 -29 -9 -87 -71 -94 -101 -4 -13 -14 -28 -24 -33 -25 -14 -30 -13 -30 6 0
22 -32 74 -45 73 -5 0 -23 -26 -38 -58 l-29 -59 -61 -10 c-35 -5 -63 -6 -65
-1 -2 5 -11 9 -19 9 -8 0 -37 10 -64 23 -38 17 -51 29 -58 52 -10 39 9 122 37
161 13 18 23 52 27 88 7 70 28 110 69 130 27 13 35 12 83 -6 50 -18 56 -19 78
-4z m-4905 -219 c10 -13 9 -15 -9 -15 -12 0 -21 6 -21 15 0 8 4 15 9 15 5 0
14 -7 21 -15z m6138 -17 c14 -14 16 -67 3 -87 -13 -20 27 -99 52 -103 32 -5
62 -54 62 -101 0 -25 5 -42 12 -42 19 0 83 -59 83 -77 0 -10 5 -18 10 -18 6 0
10 -13 10 -29 0 -17 -4 -33 -10 -36 -16 -10 -12 -63 6 -73 9 -5 35 -5 58 -1
80 15 112 -39 61 -105 -29 -39 -33 -76 -7 -76 32 0 45 -16 38 -47 -8 -37 -70
-101 -105 -109 -14 -4 -34 -13 -43 -21 -14 -13 -19 -12 -38 7 -15 15 -20 29
-16 44 7 30 -19 66 -49 66 -27 0 -55 24 -55 48 0 8 5 31 12 49 14 40 7 47 -52
57 -53 8 -67 28 -45 63 10 16 28 40 41 54 23 24 24 27 8 58 -20 40 -11 79 20
91 40 15 40 38 -1 55 -19 8 -39 15 -44 15 -5 0 -10 6 -10 13 -1 6 -3 23 -4 36
-3 26 -20 40 -50 41 -29 1 -55 24 -55 48 0 35 -11 52 -34 52 -45 1 -81 57 -51
82 9 7 22 18 29 25 32 28 142 43 164 21z m-2501 -20 c24 -31 26 -147 2 -132
-5 3 -9 0 -9 -5 0 -21 -19 -11 -32 16 -18 38 -48 43 -48 9 0 -18 9 -30 30 -41
26 -13 30 -21 30 -55 0 -27 -4 -40 -14 -40 -13 0 -13 -7 -5 -150 1 -14 -6 -43
-15 -65 -10 -22 -19 -65 -20 -95 -1 -30 -1 -45 1 -32 3 12 9 22 14 22 11 0 0
-84 -13 -88 -4 -2 -8 -18 -8 -35 0 -24 -6 -35 -22 -42 -13 -6 -26 -24 -30 -42
-9 -33 -28 -46 -28 -18 0 17 -2 18 -24 9 -25 -10 -19 -43 14 -76 30 -29 39
-45 20 -33 -6 4 -10 -10 -10 -34 0 -28 -4 -41 -14 -41 -8 0 -16 -16 -20 -40
-4 -26 -12 -40 -21 -40 -8 0 -17 -12 -20 -27 -7 -33 -32 -122 -51 -178 -7 -22
-15 -51 -17 -65 -3 -20 -5 -19 -6 8 0 18 -5 31 -9 28 -5 -3 -8 -18 -7 -34 l2
-30 -47 34 c-25 18 -66 43 -91 54 -24 11 -36 18 -26 15 10 -3 28 2 40 10 15
10 17 15 7 15 -8 0 -21 4 -27 8 -18 12 5 70 40 102 26 23 27 28 27 122 0 54 4
98 9 98 15 0 31 59 31 111 0 27 5 49 10 49 6 0 10 18 10 40 0 22 5 40 10 40 6
0 10 18 10 40 0 22 4 40 9 40 5 0 11 9 14 21 11 41 32 14 35 -44 3 -56 4 -57
32 -57 28 0 30 2 30 40 0 34 3 40 21 40 20 0 21 4 17 78 -3 42 -3 60 -1 40 3
-30 8 -38 25 -38 18 0 20 5 15 48 -6 65 14 425 25 437 5 6 11 2 14 -11 6 -21
6 -21 29 2 27 27 47 30 62 12z m48 -8 c3 -5 1 -10 -4 -10 -6 0 -11 5 -11 10 0
6 2 10 4 10 3 0 8 -4 11 -10z m-3895 -39 c0 -35 3 -38 25 -38 14 0 28 -3 31
-6 4 -3 1 -53 -6 -111 -6 -58 -9 -110 -5 -115 4 -7 -6 -11 -24 -11 -29 0 -31
2 -31 40 0 29 -4 40 -15 40 -12 0 -15 16 -15 80 0 73 -2 80 -20 80 -17 0 -20
7 -20 40 l0 40 40 0 c40 0 40 0 40 -39z m5786 -219 c22 -14 26 -52 10 -77 -30
-45 -86 -22 -86 35 0 39 44 64 76 42z m-746 -62 c0 -5 -4 -10 -10 -10 -5 0
-10 5 -10 10 0 6 5 10 10 10 6 0 10 -4 10 -10z m17 -76 c12 -19 13 -30 3 -58
-6 -20 -9 -40 -5 -45 9 -15 -32 -51 -65 -58 -16 -3 -27 -9 -25 -13 3 -5 0 -10
-7 -12 -9 -3 -8 -10 5 -22 10 -10 16 -23 15 -28 -2 -6 18 -32 44 -58 26 -27
48 -55 48 -63 0 -18 -51 -57 -73 -57 -9 0 -19 5 -22 10 -3 6 -15 10 -26 10
-16 0 -19 7 -19 40 0 31 -6 45 -27 63 -47 40 -57 56 -70 114 -18 86 -16 99 18
138 27 31 37 36 68 33 26 -2 41 3 57 19 26 26 58 21 81 -13z m633 -253 c0 -15
8 -45 19 -67 27 -57 34 -84 22 -84 -6 0 -11 5 -11 10 0 14 -36 13 -59 -2 -31
-19 -51 -3 -49 39 0 21 -3 55 -7 75 -6 28 -3 44 9 62 15 24 17 24 46 10 22
-12 30 -22 30 -43z m-406 -82 c26 -30 26 -31 9 -60 -31 -52 -67 -46 -101 18
-13 23 -2 42 33 61 28 16 30 15 59 -19z m-319 -135 c17 -36 39 -72 49 -80 19
-13 19 -14 2 -33 -30 -33 -71 -34 -105 -3 -43 39 -52 100 -20 147 13 19 29 35
34 35 6 0 24 -30 40 -66z m-4700 -34 c3 -5 1 -10 -4 -10 -6 0 -11 5 -11 10 0
6 2 10 4 10 3 0 8 -4 11 -10z m4828 -115 c59 -33 69 -47 61 -80 -11 -44 -111
-74 -142 -43 -7 7 -12 38 -12 70 0 44 4 59 18 67 24 14 24 14 75 -14z m467
-10 c0 -8 8 -23 18 -33 37 -37 43 -77 14 -98 -20 -15 -89 -7 -122 15 -14 8
-34 20 -45 26 -21 11 -31 52 -17 72 4 7 32 17 62 22 81 13 90 13 90 -4z
m-4065 -25 c-3 -5 -10 -10 -16 -10 -5 0 -9 5 -9 10 0 6 7 10 16 10 8 0 12 -4
9 -10z m5264 -74 c23 -30 45 -57 50 -60 10 -6 67 19 93 41 14 13 18 12 27 -5
6 -11 7 -22 4 -26 -3 -3 -5 -28 -4 -56 2 -65 -20 -117 -53 -126 -14 -3 -26
-11 -26 -16 0 -6 7 -8 15 -4 10 4 15 -1 15 -15 0 -11 8 -22 18 -25 69 -23 84
-63 51 -143 -20 -46 -20 -51 -4 -80 15 -30 15 -33 -3 -59 -24 -34 -35 -109
-18 -120 8 -4 11 -21 8 -44 -3 -29 -9 -37 -28 -41 -17 -3 -28 1 -34 14 -11 20
-3 52 11 43 5 -3 6 2 3 10 -5 12 -10 13 -31 3 -23 -10 -28 -8 -53 23 -20 25
-29 48 -32 82 -2 27 0 48 5 48 4 0 7 7 7 15 0 8 4 15 9 15 5 0 11 12 13 28 2
16 12 31 26 37 35 15 29 95 -8 95 -29 0 -43 -28 -45 -92 -1 -50 -6 -64 -24
-80 -46 -37 -111 -12 -111 42 0 38 -28 88 -68 124 -66 58 -65 55 -58 121 3 33
13 85 22 114 8 29 13 65 9 78 -4 19 0 29 17 42 29 21 129 69 145 70 7 1 30
-23 52 -53z m-5390 -18 c1 -49 5 -59 18 -54 8 3 12 2 9 -2 -3 -5 23 -14 58
-20 78 -15 106 -15 106 -2 0 6 11 10 25 10 16 0 25 -6 25 -15 0 -13 -17 -15
-105 -14 -103 1 -105 1 -130 31 -14 16 -25 36 -25 43 0 7 -3 20 -6 29 -4 10
-1 16 9 16 9 0 15 -9 16 -22z m3632 -28 c4 -8 13 -37 20 -63 6 -26 14 -45 17
-42 3 2 12 -1 20 -7 8 -7 24 -17 36 -23 16 -8 22 -21 24 -59 2 -32 0 -46 -7
-41 -12 7 -31 -34 -31 -67 0 -11 8 -22 20 -25 11 -3 20 -11 20 -17 0 -6 14
-17 30 -23 17 -6 30 -18 30 -27 0 -27 14 -17 34 23 10 21 15 47 12 58 -5 16
-1 18 29 17 34 -2 105 -45 105 -64 0 -5 27 -12 61 -16 54 -6 65 -11 97 -46 46
-49 52 -70 56 -188 4 -100 21 -151 57 -170 13 -7 19 -21 19 -44 0 -30 4 -34
39 -44 42 -13 51 -30 50 -92 0 -27 -10 -46 -44 -82 -57 -63 -83 -64 -124 -3
-17 25 -34 57 -37 71 -4 16 -19 30 -42 40 -44 18 -52 29 -52 75 0 23 -7 42
-20 54 -25 22 -18 59 18 98 23 24 25 31 14 47 -7 11 -12 34 -12 52 0 33 -4 37
-83 85 -11 6 -22 15 -26 20 -22 30 -81 58 -119 54 -13 -1 -12 -56 1 -77 12
-20 26 -100 21 -119 -3 -11 -30 -36 -60 -55 -29 -19 -54 -40 -54 -47 0 -6 -6
-14 -12 -16 -9 -4 -9 -8 -3 -14 6 -4 15 -17 21 -28 7 -12 34 -25 78 -36 81
-21 120 -52 111 -89 -8 -29 -33 -60 -50 -60 -16 0 -65 -24 -65 -32 0 -14 -63
-20 -87 -7 -19 10 -28 11 -44 1 -25 -16 -62 -6 -86 22 -49 57 -73 102 -73 139
0 34 7 45 46 82 42 38 45 44 34 65 -10 19 -9 29 9 65 20 40 20 44 5 126 -8 46
-16 116 -18 154 -2 42 -12 89 -24 115 -53 121 -71 230 -42 263 18 20 70 19 81
-3z m-3601 0 c0 -5 -5 -10 -11 -10 -5 0 -7 5 -4 10 3 6 8 10 11 10 2 0 4 -4 4
-10z m5675 -6 c24 -24 3 -46 -30 -30 -24 11 -31 26 -18 39 11 12 31 8 48 -9z
m-3700 -45 c-3 -4 -12 -6 -20 -3 -8 4 -13 10 -10 15 3 4 12 6 20 3 8 -4 13
-10 10 -15z m-1710 -9 c-3 -5 -1 -10 4 -10 6 0 11 4 11 9 0 9 50 5 125 -9 29
-6 12 -8 -59 -7 -69 1 -101 6 -104 15 -2 6 4 12 13 12 9 0 13 -4 10 -10z
m3533 -108 c2 -14 -2 -22 -11 -22 -17 0 -30 27 -21 41 9 16 29 4 32 -19z
m-1657 -29 c13 -16 12 -17 -3 -4 -10 7 -18 15 -18 17 0 8 8 3 21 -13z m-106
-13 c3 -5 1 -10 -4 -10 -6 0 -11 5 -11 10 0 6 2 10 4 10 3 0 8 -4 11 -10z
m1785 -19 c0 -6 -4 -13 -10 -16 -5 -3 -10 1 -10 9 0 9 5 16 10 16 6 0 10 -4
10 -9z m-1760 -10 c0 -5 -4 -11 -10 -13 -6 -2 -5 -9 1 -18 8 -11 12 -12 16 -2
2 6 9 12 15 12 7 0 7 -5 -1 -13 -6 -8 -8 -17 -4 -20 11 -11 -17 -8 -30 3 -7 6
-21 17 -32 25 -16 12 -16 14 -3 9 11 -4 20 0 24 10 7 17 24 22 24 7z m-139
-81 c26 0 48 -27 42 -51 -5 -18 -3 -20 18 -14 19 5 21 4 9 -4 -13 -10 -13 -12
0 -21 15 -9 16 -51 3 -114 l-5 -30 -14 25 c-7 13 -13 18 -14 12 0 -8 -15 -13
-41 -13 -33 0 -40 3 -35 16 3 9 6 34 6 55 0 22 4 38 9 35 5 -3 11 1 15 9 3 9
0 15 -10 15 -9 0 -12 5 -8 13 5 8 2 7 -10 -2 -9 -8 -15 -20 -12 -28 3 -8 2
-12 -2 -9 -16 10 -12 74 4 80 11 4 13 13 9 28 -6 19 -5 21 6 11 7 -7 21 -13
30 -13z m188 -1 c-22 -14 -33 -10 -19 6 7 8 17 12 22 9 6 -4 5 -10 -3 -15z
m-249 -169 c0 -15 -7 -20 -27 -20 -25 0 -26 0 -8 20 10 11 22 20 27 20 4 0 8
-9 8 -20z m203 -10 c15 0 16 -115 2 -129 -8 -8 -10 10 -8 57 2 47 0 61 -6 47
-8 -16 -10 -12 -9 20 0 22 2 32 5 23 2 -10 10 -18 16 -18z m3639 -57 c27 -24
23 -56 -11 -76 -56 -33 -115 -12 -92 32 12 22 59 61 74 61 6 0 19 -7 29 -17z
m-7119 -145 c-9 -50 -25 -70 -17 -23 7 40 12 55 19 55 3 0 2 -15 -2 -32z
m-2703 -39 c0 -24 -23 -21 -28 4 -2 10 3 17 12 17 10 0 16 -9 16 -21z m9905
-189 c7 -23 -10 -50 -30 -50 -20 0 -37 27 -30 50 4 13 15 20 30 20 15 0 26 -7
30 -20z m-9010 -173 c55 -2 145 -9 200 -15 55 -7 162 -12 238 -12 123 0 139
-2 157 -20 58 -58 3 -78 -229 -86 -173 -6 -182 -5 -258 19 -149 48 -154 48
-447 44 -154 -2 -287 -2 -297 0 -19 5 -30 35 -19 53 4 7 45 14 101 17 52 3 96
8 99 10 5 4 265 -1 455 -10z m7806 -90 c-1 -4 -1 -14 -1 -22 0 -19 -24 -19
-39 -1 -10 11 -8 17 6 25 19 11 35 10 34 -2z m-6376 -163 c50 -2 93 -3 98 -4
15 0 6 -30 -15 -44 -18 -13 -50 -16 -153 -15 -149 1 -206 13 -211 46 -5 28 17
33 116 26 41 -3 116 -6 165 -9z m-1630 -554 c4 -6 -5 -10 -20 -10 -15 0 -24 4
-20 10 3 6 12 10 20 10 8 0 17 -4 20 -10z m-62 -7 c-7 -2 -19 -2 -25 0 -7 3
-2 5 12 5 14 0 19 -2 13 -5z m90 -79 c9 -9 -4 -35 -14 -28 -5 3 -9 12 -9 20 0
14 12 19 23 8z m-813 -294 c13 -9 13 -11 0 -20 -21 -14 -37 -12 -43 4 -10 25
15 34 43 16z"/>
<path d="M10423 6728 c2 -7 -4 -23 -15 -35 -25 -27 -20 -43 10 -32 17 6 22 16
22 44 0 19 -5 35 -11 35 -6 0 -9 -6 -6 -12z"/>
<path d="M7271 3456 c-8 -10 -9 -16 -1 -21 5 -3 13 1 16 10 9 22 -1 29 -15 11z"/>
<path d="M6980 2840 c0 -33 3 -40 20 -40 17 0 20 7 20 40 0 33 -3 40 -20 40
-17 0 -20 -7 -20 -40z"/>
<path d="M6924 2225 c8 -8 18 -15 22 -15 3 0 1 7 -6 15 -7 8 -17 15 -22 15 -5
0 -3 -7 6 -15z"/>
<path d="M6748 2003 c7 -3 16 -2 19 1 4 3 -2 6 -13 5 -11 0 -14 -3 -6 -6z"/>
<path d="M6768 1880 c2 -22 6 -40 8 -40 2 0 4 18 4 40 0 22 -3 40 -8 40 -4 0
-6 -18 -4 -40z"/>
<path d="M10240 10043 c0 -50 -47 -142 -80 -157 -46 -20 -52 -32 -25 -50 19
-12 25 -13 26 -4 0 7 5 3 11 -10 6 -13 19 -21 27 -20 18 4 22 29 6 40 -6 5 -2
8 8 8 10 0 30 -9 45 -20 15 -11 43 -21 61 -22 52 -4 62 30 34 120 -12 37 -24
79 -27 94 -4 19 -14 28 -36 33 -16 4 -30 11 -30 16 0 5 -4 9 -10 9 -5 0 -10
-17 -10 -37z"/>
<path d="M10506 9931 c-15 -24 29 -62 54 -46 16 10 12 42 -6 49 -22 9 -42 7
-48 -3z"/>
<path d="M9820 9872 c0 -4 5 -13 12 -20 9 -9 8 -12 -5 -12 -10 0 -14 -5 -11
-15 4 -9 -6 -26 -22 -42 -31 -30 -42 -50 -68 -123 -22 -62 -20 -75 13 -109 30
-30 41 -26 41 16 0 8 14 33 31 54 23 29 38 39 59 39 61 0 75 -57 27 -108 -17
-19 -29 -23 -54 -18 -18 2 -33 1 -33 -5 0 -5 -6 -9 -14 -9 -7 0 -19 -6 -25
-14 -14 -16 21 -66 47 -66 19 0 55 -71 46 -93 -3 -8 -20 -21 -38 -30 -32 -15
-35 -15 -50 2 -9 10 -16 21 -16 26 0 4 -12 27 -27 50 -24 38 -32 44 -74 49
-64 9 -79 1 -79 -40 0 -19 4 -42 9 -52 4 -9 16 -35 26 -57 9 -22 22 -49 28
-60 6 -11 16 -31 24 -45 7 -14 13 -40 13 -57 0 -18 5 -33 10 -33 6 0 10 -6 10
-13 0 -14 35 -47 51 -47 6 0 9 -10 8 -22 -1 -13 6 -40 16 -60 l18 -37 -32 -33
c-29 -30 -34 -31 -62 -21 -28 11 -29 10 -23 -9 9 -31 56 -70 76 -65 9 3 22 -1
29 -9 15 -18 29 -18 29 1 0 8 -4 15 -10 15 -19 0 -10 17 15 28 30 14 35 65 8
81 -17 10 -17 12 -1 24 9 7 19 31 23 52 13 80 25 105 53 112 45 11 54 45 27
100 -17 34 -11 63 12 63 9 0 33 19 56 42 36 37 38 42 23 53 -14 11 -14 14 -1
25 8 7 21 10 29 7 17 -7 31 39 18 56 -5 7 -12 28 -15 47 -14 88 -29 154 -42
193 -14 40 -13 43 10 67 34 36 32 46 -17 71 -33 17 -46 19 -60 10 -27 -17 -37
-14 -68 19 -27 29 -50 39 -50 22z"/>
<path d="M4877 9332 l-29 -14 31 -19 c40 -24 57 -64 37 -85 -8 -8 -22 -11 -30
-8 -24 9 -39 -37 -18 -53 14 -12 14 -13 -1 -13 -9 0 -17 -7 -17 -15 0 -9 -9
-15 -22 -15 -16 0 -35 -16 -61 -53 -21 -28 -58 -79 -82 -112 -24 -33 -42 -63
-40 -66 2 -3 -7 -22 -20 -42 -29 -42 -31 -48 -10 -41 8 4 15 4 15 0 0 -6 -32
-79 -62 -144 -18 -36 -21 -65 -23 -210 -3 -211 10 -322 34 -284 5 9 16 3 36
-18 16 -16 25 -33 22 -37 -4 -4 -13 -1 -19 5 -7 7 -20 12 -30 12 -15 0 -18 -8
-17 -42 1 -24 4 -56 8 -73 7 -30 7 -30 26 20 26 70 40 82 34 29 0 -3 7 -11 17
-18 15 -12 14 -15 -12 -39 -24 -23 -29 -35 -29 -76 0 -61 17 -84 50 -69 18 8
26 22 31 55 11 71 26 35 27 -66 2 -90 2 -91 27 -90 14 0 19 3 13 6 -8 3 -13
21 -12 46 1 23 3 33 6 22 12 -49 23 -35 21 25 -2 36 -5 67 -8 70 -9 9 -30 99
-30 130 0 17 -5 30 -10 30 -7 0 -10 22 -9 53 1 42 14 78 67 187 l66 135 9 -43
8 -43 28 28 c35 37 103 60 139 47 29 -10 33 -24 11 -35 -8 -4 -31 -15 -51 -25
-21 -10 -38 -22 -38 -26 0 -5 -5 -8 -12 -8 -15 0 -58 -49 -58 -66 0 -20 17
-26 39 -14 12 6 22 6 25 1 3 -5 16 -7 29 -4 22 5 22 5 2 -10 -11 -9 -26 -17
-32 -17 -15 0 -18 -20 -3 -20 6 0 10 -7 10 -15 0 -8 6 -12 14 -9 8 3 17 0 21
-5 3 -6 11 -8 17 -5 7 4 8 -4 4 -23 -6 -25 -3 -31 13 -36 27 -7 105 9 109 22
6 17 33 13 48 -6 11 -15 13 -15 14 -3 0 8 8 20 19 27 23 14 81 99 81 117 0 20
31 53 56 60 17 5 25 0 38 -29 10 -20 24 -39 33 -42 12 -5 14 -21 13 -72 -4
-86 -2 -103 9 -97 5 3 12 -19 16 -49 5 -41 11 -55 22 -55 9 0 14 -2 12 -5 -3
-2 -33 0 -67 6 -53 10 -67 9 -98 -6 -20 -9 -42 -18 -48 -19 -6 -1 -26 -12 -43
-24 -43 -30 -57 -29 -49 6 24 102 15 152 -28 152 -29 0 -46 -17 -46 -48 0 -5
-18 -15 -40 -22 -34 -11 -40 -18 -40 -40 0 -18 -8 -33 -24 -43 -14 -10 -24
-25 -23 -39 0 -13 -3 -44 -6 -71 -6 -37 -4 -49 7 -53 14 -5 23 0 60 33 32 29
90 63 106 63 21 0 82 -54 73 -64 -3 -3 -1 -6 6 -6 8 0 10 -7 6 -21 -6 -18 -5
-19 13 -10 14 7 23 8 27 1 6 -10 -1 -14 -19 -11 -4 1 -14 -3 -21 -9 -18 -15
-94 6 -102 28 -4 9 -11 20 -15 23 -18 12 -56 -3 -61 -23 -4 -13 -11 -18 -20
-15 -8 3 -21 -3 -29 -12 -8 -10 -25 -25 -38 -34 -19 -13 -21 -19 -11 -31 11
-13 10 -18 -2 -30 -10 -10 -18 -11 -25 -4 -18 18 -62 -31 -62 -71 -1 -34 -1
-35 -16 -16 -15 19 -15 19 -9 -7 6 -21 4 -28 -8 -28 -8 0 -20 12 -26 28 -11
27 -11 27 -6 -6 6 -39 46 -132 57 -132 5 0 8 -6 8 -13 0 -18 24 -67 33 -67 4
0 7 -7 7 -15 0 -8 9 -20 20 -27 11 -7 20 -22 20 -34 0 -12 7 -25 16 -28 8 -3
24 -25 34 -48 23 -53 74 -105 85 -87 6 9 11 9 19 -3 6 -8 35 -21 64 -27 32 -8
56 -20 63 -32 5 -10 15 -19 22 -19 18 0 39 -52 27 -64 -5 -5 -10 -29 -10 -53
0 -25 -5 -43 -11 -43 -8 0 -8 -5 1 -15 7 -8 18 -15 25 -15 7 0 18 -6 24 -14 7
-8 20 -13 29 -11 9 2 22 4 28 4 14 1 45 74 51 122 3 21 10 36 15 33 5 -3 21 8
37 25 16 18 39 31 53 31 41 0 68 12 68 30 0 13 11 19 40 24 22 3 40 11 40 16
0 6 7 10 15 10 8 0 15 3 15 8 0 11 108 122 120 122 5 0 10 17 11 38 0 30 2 33
9 17 6 -13 9 6 9 61 1 71 5 88 36 150 19 38 42 91 51 118 16 46 17 48 47 42
25 -5 29 -4 19 6 -18 18 -15 48 6 48 16 1 16 2 -1 14 -18 14 -17 15 4 21 16 5
26 2 38 -14 9 -11 21 -17 27 -13 40 26 50 141 15 172 -25 20 -27 32 -6 24 11
-5 15 2 16 27 1 19 1 39 -1 44 -1 6 3 6 9 0 6 -6 14 -52 17 -103 4 -51 10 -92
14 -92 11 0 29 78 36 160 l7 73 -29 -6 c-16 -3 -24 -4 -17 -1 11 5 16 22 44
169 6 33 15 78 21 100 5 22 9 48 9 58 0 9 6 17 14 17 21 0 28 19 15 35 -8 10
-11 37 -8 77 4 49 0 77 -18 127 -13 36 -28 69 -34 75 -5 5 -10 25 -10 43 0 32
-31 107 -47 115 -5 1 -20 19 -34 38 -17 22 -45 42 -75 53 -71 27 -79 32 -82
56 -3 17 -7 20 -17 11 -10 -8 -15 -8 -21 1 -4 7 -3 14 4 17 14 4 6 28 -24 69
-13 17 -24 38 -24 45 0 13 -26 32 -100 76 -36 21 -144 53 -176 51 -11 0 4 -9
32 -19 29 -10 67 -25 85 -33 19 -9 52 -23 73 -32 22 -8 36 -18 33 -22 -4 -3
-12 -1 -19 4 -7 6 -22 13 -33 16 -11 3 -53 17 -94 31 -54 19 -102 28 -180 32
-121 6 -238 22 -264 36 -12 6 -23 6 -31 -1 -14 -12 -83 16 -106 43 -13 17 -40
22 -40 8 0 -4 5 -13 12 -20 9 -9 7 -12 -9 -12 -12 0 -28 7 -37 15 -8 8 -26 15
-41 15 -14 0 -34 4 -43 8 -11 5 -28 3 -45 -6z m938 -243 c11 -16 1 -19 -13 -3
-7 8 -8 14 -3 14 5 0 13 -5 16 -11z m233 -231 c19 -19 14 -30 -8 -18 -11 6
-20 15 -20 20 0 14 14 12 28 -2z m80 -73 c-3 -3 -9 2 -12 12 -6 14 -5 15 5 6
7 -7 10 -15 7 -18z m-954 -203 c3 -5 -8 -6 -25 -4 -16 2 -29 6 -29 8 0 8 49 4
54 -4z m675 -246 c9 -11 8 -15 -4 -20 -9 -3 -13 -2 -10 4 3 6 1 10 -4 10 -6 0
-11 5 -11 10 0 14 16 12 29 -4z m-369 -181 c0 -14 -4 -25 -10 -25 -5 0 -10 11
-10 25 0 14 5 25 10 25 6 0 10 -11 10 -25z m446 -102 c14 -19 19 -133 6 -133
-5 0 -16 -17 -26 -37 -12 -26 -20 -33 -26 -24 -6 11 -9 10 -16 -2 -8 -14 -32
-21 -61 -18 -6 0 -14 19 -18 41 -4 22 -11 40 -16 40 -16 0 -10 52 9 67 11 9
11 12 2 8 -8 -4 3 11 25 33 45 46 97 57 121 25z m-385 -105 c4 -16 3 -28 -2
-28 -5 0 -9 5 -9 11 0 5 -4 8 -9 4 -6 -3 -15 3 -20 14 -16 28 -14 33 11 29 14
-2 24 -13 29 -30z m-366 -313 c30 -31 32 -45 4 -45 -11 0 -17 5 -14 10 3 6 -3
10 -14 10 -22 0 -30 20 -8 20 7 0 4 7 -7 15 -17 13 -17 15 -3 15 9 0 28 -11
42 -25z m402 -17 c-3 -8 -6 -5 -6 6 -1 11 2 17 5 13 3 -3 4 -12 1 -19z m-370
-194 c4 -10 0 -20 -10 -25 -9 -5 -23 -16 -31 -24 -16 -17 -56 -20 -56 -5 0 17
54 70 73 70 10 0 20 -7 24 -16z"/>
<path d="M9506 9081 c-10 -10 -19 -40 -21 -65 -5 -59 -6 -60 -57 -76 -70 -23
-73 -37 -21 -104 24 -32 33 -50 25 -54 -6 -4 -16 -30 -22 -56 -8 -39 -8 -51 2
-58 18 -11 32 -10 45 3 6 6 21 16 34 23 12 6 24 21 25 33 2 12 14 37 27 56 13
19 29 49 36 65 7 17 23 33 36 36 15 4 31 22 44 50 20 39 20 48 9 85 -11 34
-17 41 -39 41 -15 0 -38 9 -52 20 -31 25 -49 25 -71 1z"/>
<path d="M9624 8496 c-7 -31 1 -46 26 -46 65 0 67 45 3 64 -18 6 -24 2 -29
-18z"/>
<path d="M9635 8010 c-3 -5 -1 -10 4 -10 6 0 11 5 11 10 0 6 -2 10 -4 10 -3 0
-8 -4 -11 -10z"/>
<path d="M9465 7888 c-2 -7 -6 -25 -9 -40 -3 -15 -7 -32 -11 -37 -3 -6 -2 -18
4 -28 5 -10 14 -31 20 -46 10 -25 15 -28 53 -25 50 4 57 18 24 51 -14 14 -28
37 -32 51 -3 15 -10 29 -15 32 -5 3 -9 16 -9 30 0 25 -17 33 -25 12z"/>
<path d="M4865 7850 c-3 -5 1 -10 10 -10 9 0 13 5 10 10 -3 6 -8 10 -10 10 -2
0 -7 -4 -10 -10z"/>
<path d="M9460 7431 c0 -5 -9 -13 -20 -16 -29 -9 -43 -40 -30 -65 14 -27 26
-25 60 8 21 21 27 35 23 55 -5 25 -33 40 -33 18z"/>
<path d="M8890 7411 c-37 -10 -37 -42 1 -63 37 -22 63 -23 79 -3 10 12 7 20
-18 45 -17 16 -32 30 -34 29 -2 -1 -14 -4 -28 -8z"/>
<path d="M9680 7279 c0 -17 4 -28 10 -24 6 3 10 17 10 31 0 13 -4 24 -10 24
-5 0 -10 -14 -10 -31z"/>
<path d="M5881 7106 c-2 -61 -104 -157 -204 -192 -23 -8 -49 -22 -59 -31 -10
-9 -18 -12 -18 -8 0 5 -12 -3 -27 -16 -16 -14 -53 -41 -83 -60 -50 -31 -62
-34 -138 -36 -47 -1 -86 -4 -89 -6 -13 -13 -203 94 -203 114 0 5 -5 9 -10 9
-6 0 -23 12 -38 26 -15 14 -39 33 -54 42 -16 9 -28 19 -28 23 0 4 -12 15 -27
25 -53 33 -19 -3 137 -150 123 -115 138 -123 295 -162 74 -19 532 288 559 373
4 11 2 31 -3 44 -8 20 -10 21 -10 5z m-386 -336 c-3 -5 -11 -10 -16 -10 -6 0
-7 5 -4 10 3 6 11 10 16 10 6 0 7 -4 4 -10z"/>
<path d="M5848 7090 c-7 -24 -3 -38 8 -28 3 4 4 17 2 30 l-3 23 -7 -25z"/>
<path d="M4992 6596 c-64 -63 -125 -128 -135 -145 l-18 -31 41 23 c23 13 41
27 40 32 -5 27 101 20 123 -8 7 -8 31 -27 55 -41 29 -18 42 -33 42 -49 1 -21
1 -21 15 -3 8 10 12 24 8 30 -3 6 7 -1 22 -15 l27 -26 -35 -49 c-51 -72 -79
-132 -72 -155 4 -10 2 -19 -3 -19 -12 0 -25 -69 -52 -270 -11 -85 -24 -177
-30 -205 -5 -27 -14 -102 -20 -165 -6 -63 -13 -133 -15 -155 -3 -22 -9 -71
-16 -108 -6 -38 -8 -71 -5 -74 2 -3 -3 -26 -13 -52 -11 -27 -21 -86 -24 -143
l-6 -98 50 0 c27 0 49 -4 49 -9 0 -4 -23 -6 -51 -3 -39 4 -50 2 -45 -7 5 -7
13 -10 19 -8 7 2 18 -3 26 -10 8 -8 22 -12 32 -10 12 3 19 0 19 -8 0 -11 -12
-13 -50 -8 -34 4 -50 2 -50 -6 0 -6 6 -11 13 -11 7 0 4 -5 -5 -11 -10 -5 -17
-20 -17 -32 0 -12 -4 -51 -10 -87 -6 -36 -18 -121 -27 -190 -13 -108 -41 -294
-84 -578 -6 -40 -9 -87 -5 -105 5 -24 4 -28 -4 -17 -9 12 -11 9 -9 -15 1 -16
-1 -39 -5 -50 -4 -11 -20 -112 -37 -225 -17 -113 -35 -227 -39 -255 -5 -27
-20 -126 -35 -218 -23 -140 -25 -171 -14 -185 7 -9 48 -59 91 -112 43 -52 82
-101 88 -107 15 -19 22 -17 80 29 114 90 229 206 229 232 1 48 21 215 54 441
38 267 48 366 72 700 9 127 18 244 20 260 4 28 9 92 34 408 5 70 14 167 19
215 26 224 31 277 41 417 33 483 39 845 14 910 -12 30 -43 132 -44 141 0 1 11
5 25 8 27 7 69 42 78 66 3 8 6 -4 6 -27 1 -23 6 -45 11 -48 6 -3 10 -1 10 4 0
6 7 11 16 11 8 0 30 11 47 24 18 13 48 31 66 40 34 16 35 16 55 -8 20 -23 56
-42 56 -29 0 7 -76 110 -97 131 -7 8 -25 30 -40 50 -15 21 -40 52 -57 69 l-30
33 -22 -21 c-12 -12 -20 -27 -18 -33 7 -20 -36 -34 -113 -39 -47 -3 -74 0 -78
7 -3 8 -7 7 -11 -1 -12 -27 -23 -11 -18 27 5 39 3 41 -30 55 -19 8 -37 19 -41
25 -16 26 -52 3 -163 -104z m548 -124 c0 -16 -48 -62 -65 -62 -14 0 -2 30 21
54 31 31 44 33 44 8z m-300 -202 c0 -5 -5 -10 -11 -10 -6 0 -9 -7 -5 -15 3 -8
1 -15 -4 -15 -11 0 -13 11 -4 34 7 18 24 22 24 6z m-37 -92 c-5 -33 -7 -36
-20 -23 -14 14 -11 27 12 51 13 15 13 16 8 -28z m-38 -38 c-3 -5 -16 -10 -28
-9 -21 0 -21 1 -2 9 28 12 37 12 30 0z m145 -635 c0 -14 -2 -25 -4 -25 -2 0
-6 11 -8 25 -3 14 -1 25 3 25 5 0 9 -11 9 -25z m7 -97 c-2 -13 -4 -3 -4 22 0
25 2 35 4 23 2 -13 2 -33 0 -45z m-6 -65 c-8 -15 -10 -15 -11 -2 0 17 10 32
18 25 2 -3 -1 -13 -7 -23z m-151 -13 c-8 -5 -28 -9 -45 -9 l-30 1 30 8 c17 4
37 8 45 9 13 1 13 0 0 -9z m150 -20 c0 -6 -26 -9 -62 -8 l-63 1 60 7 c33 4 61
7 63 8 1 1 2 -2 2 -8z m-175 -38 c-3 -3 -11 0 -18 7 -9 10 -8 11 6 5 10 -3 15
-9 12 -12z m70 8 c3 -6 -1 -7 -9 -4 -18 7 -21 14 -7 14 6 0 13 -4 16 -10z m76
-127 c-12 -20 -14 -14 -5 12 4 9 9 14 11 11 3 -2 0 -13 -6 -23z m-261 -12 c0
-5 -9 -7 -20 -4 -11 3 -20 7 -20 9 0 2 9 4 20 4 11 0 20 -4 20 -9z m175 -1 c3
-5 -1 -10 -10 -10 -9 0 -13 5 -10 10 3 6 8 10 10 10 2 0 7 -4 10 -10z m-52 -7
c-13 -2 -35 -2 -50 0 -16 2 -5 4 22 4 28 0 40 -2 28 -4z m134 -25 c-3 -8 -6
-5 -6 6 -1 11 2 17 5 13 3 -3 4 -12 1 -19z m-76 -40 c2 -26 0 -50 -4 -54 -4
-4 -7 19 -7 51 0 69 7 70 11 3z m-226 22 c3 -5 1 -10 -4 -10 -6 0 -11 5 -11
10 0 6 2 10 4 10 3 0 8 -4 11 -10z m292 -42 c-3 -7 -5 -2 -5 12 0 14 2 19 5
13 2 -7 2 -19 0 -25z m-172 12 c3 -5 16 -10 28 -10 16 0 18 -3 8 -9 -14 -9
-71 8 -71 21 0 12 28 10 35 -2z m82 -26 c-3 -3 -12 -4 -19 -1 -8 3 -5 6 6 6
11 1 17 -2 13 -5z m33 -59 c0 -25 -15 -24 -16 1 -1 13 2 21 7 18 5 -3 9 -11 9
-19z m-13 -67 c-3 -8 -6 -5 -6 6 -1 11 2 17 5 13 3 -3 4 -12 1 -19z m-130 -44
c-3 -3 -12 -4 -19 -1 -8 3 -5 6 6 6 11 1 17 -2 13 -5z m-97 -94 c0 -5 -2 -10
-4 -10 -3 0 -8 5 -11 10 -3 6 -1 10 4 10 6 0 11 -4 11 -10z m27 -46 c-3 -3
-12 -4 -19 -1 -8 3 -5 6 6 6 11 1 17 -2 13 -5z m250 -506 c-3 -8 -6 -5 -6 6
-1 11 2 17 5 13 3 -3 4 -12 1 -19z m-43 -12 c-3 -9 -10 -13 -15 -10 -5 3 -3
11 4 19 15 16 19 13 11 -9z m-27 -138 c-3 -7 -5 -2 -5 12 0 14 2 19 5 13 2 -7
2 -19 0 -25z m-140 -50 c-2 -13 -4 -5 -4 17 -1 22 1 32 4 23 2 -10 2 -28 0
-40z m133 -52 c0 -2 -7 -7 -16 -10 -8 -3 -12 -2 -9 4 6 10 25 14 25 6z m-264
-53 c-11 -11 -19 6 -11 24 8 17 8 17 12 0 3 -10 2 -21 -1 -24z m247 2 c-3 -9
-8 -14 -10 -11 -3 3 -2 9 2 15 9 16 15 13 8 -4z m-113 -5 c0 -5 -8 -10 -17
-10 -15 0 -16 2 -3 10 19 12 20 12 20 0z m-60 -14 c0 -2 -7 -7 -16 -10 -8 -3
-12 -2 -9 4 6 10 25 14 25 6z m167 -53 c-3 -10 -5 -4 -5 12 0 17 2 24 5 18 2
-7 2 -21 0 -30z m-240 -5 c-3 -8 -6 -5 -6 6 -1 11 2 17 5 13 3 -3 4 -12 1 -19z
m43 -13 c0 -5 -5 -3 -10 5 -5 8 -10 20 -10 25 0 6 5 3 10 -5 5 -8 10 -19 10
-25z m-153 -7 c-3 -8 -6 -5 -6 6 -1 11 2 17 5 13 3 -3 4 -12 1 -19z m290 -920
c-3 -8 -6 -5 -6 6 -1 11 2 17 5 13 3 -3 4 -12 1 -19z m-167 -198 c-13 -11 -33
-17 -53 -16 -18 2 -42 4 -54 5 -13 0 -23 6 -23 12 0 8 12 10 35 6 19 -3 35 -3
35 1 0 4 18 8 40 8 39 1 40 1 20 -16z m-37 -34 c4 -10 1 -13 -8 -9 -8 3 -12 9
-9 14 7 12 11 11 17 -5z"/>
<path d="M5255 6640 c-3 -6 1 -7 9 -4 18 7 21 14 7 14 -6 0 -13 -4 -16 -10z"/>
<path d="M8354 5575 c-4 -8 -3 -22 0 -30 4 -13 10 -14 26 -5 24 13 26 35 4 44
-22 8 -24 8 -30 -9z"/>
<path d="M8603 5443 c20 -5 22 -35 6 -83 -10 -28 -9 -34 5 -42 9 -5 16 -20 16
-32 0 -13 6 -24 13 -23 6 0 45 -1 85 -1 70 -2 74 -3 116 -42 24 -22 51 -40 61
-40 10 0 34 12 54 26 58 43 77 74 46 74 -9 0 -15 9 -15 24 0 13 -7 29 -15 36
-8 7 -15 20 -15 29 -1 20 -44 53 -62 46 -7 -3 -20 -18 -29 -33 -10 -18 -30
-32 -59 -41 -48 -14 -55 -11 -87 49 -15 27 -26 35 -48 36 -16 1 -31 6 -33 13
-2 6 -16 10 -30 10 -17 -1 -21 -3 -9 -6z"/>
<path d="M3772 4905 c0 -16 2 -22 5 -12 2 9 2 23 0 30 -3 6 -5 -1 -5 -18z"/>
<path d="M3777 4820 c-14 -76 -16 -112 -8 -128 5 -9 16 -33 23 -52 8 -19 20
-46 26 -60 11 -24 11 -23 7 10 -2 19 -7 64 -10 100 -3 36 -12 87 -19 115 l-13
49 -6 -34z"/>
<path d="M3740 4483 c11 -21 20 -50 20 -65 0 -14 7 -33 14 -41 16 -15 15 -46
-2 -87 -13 -32 -10 -34 33 -26 26 5 39 14 45 32 12 30 13 84 2 68 -4 -7 -28
21 -62 72 -55 86 -86 114 -50 47z"/>
<path d="M6606 4361 c-16 -33 -17 -51 -11 -123 l8 -83 18 69 c12 48 15 75 8
88 -7 14 -6 16 6 12 12 -5 13 -1 6 22 -5 16 -11 34 -13 41 -2 7 -11 -5 -22
-26z"/>
<path d="M3432 4174 c-10 -11 -10 -14 0 -14 7 0 19 4 26 9 11 7 11 9 0 13 -7
3 -19 -1 -26 -8z"/>
<path d="M3634 4125 c22 -17 46 -20 46 -6 0 10 -25 21 -48 21 -15 -1 -14 -3 2
-15z"/>
<path d="M3690 4120 c0 -6 7 -10 15 -10 8 0 15 2 15 4 0 2 -7 6 -15 10 -8 3
-15 1 -15 -4z"/>
<path d="M6673 4087 l-53 -11 0 -39 0 -39 33 34 c18 18 43 41 57 50 14 9 23
16 20 16 -3 -1 -29 -6 -57 -11z"/>
<path d="M3705 4020 c-3 -5 -2 -10 4 -10 5 0 13 5 16 10 3 6 2 10 -4 10 -5 0
-13 -4 -16 -10z"/>
<path d="M6676 3948 c-18 -35 -26 -67 -25 -97 l1 -46 8 40 c11 54 26 92 51
126 16 23 17 29 6 29 -9 0 -27 -23 -41 -52z"/>
<path d="M3596 3945 c3 -6 21 -18 42 -26 20 -7 40 -15 45 -17 4 -2 7 2 7 10 0
7 -22 20 -49 28 -31 10 -47 12 -45 5z"/>
<path d="M3720 3866 c0 -9 5 -16 10 -16 6 0 10 4 10 9 0 6 -4 13 -10 16 -5 3
-10 -1 -10 -9z"/>
<path d="M3686 3764 c-3 -9 -3 -21 1 -26 3 -6 1 -8 -4 -5 -14 9 -23 -16 -16
-44 5 -19 8 -17 24 22 10 24 18 50 18 57 1 17 -16 15 -23 -4z"/>
<path d="M3560 3741 c0 -5 7 -15 17 -22 15 -13 15 -12 4 9 -12 23 -21 28 -21
13z"/>
<path d="M3288 963 c7 -3 16 -2 19 1 4 3 -2 6 -13 5 -11 0 -14 -3 -6 -6z"/>
<path d="M7840 870 c0 -10 5 -22 10 -25 19 -12 10 -51 -20 -83 -32 -36 -45
-84 -35 -130 3 -18 2 -33 -4 -37 -22 -13 -10 -32 32 -54 33 -17 53 -21 80 -16
19 4 49 4 66 0 26 -5 31 -11 31 -36 0 -29 12 -35 44 -23 14 5 13 9 -5 25 -12
11 -19 19 -15 19 17 0 86 -42 99 -61 18 -25 80 -35 120 -20 31 12 36 31 8 31
-25 0 -36 16 -17 23 18 7 86 -3 86 -13 0 -8 57 -33 115 -51 22 -6 43 -17 47
-22 6 -10 166 -28 181 -20 30 16 -26 111 -84 141 -24 13 -48 30 -52 39 -5 8
-28 23 -52 33 -27 12 -54 34 -75 63 -24 34 -40 46 -67 50 -20 4 -43 12 -52 20
-9 7 -49 26 -88 41 -41 15 -73 34 -73 41 0 20 -58 47 -120 56 -84 11 -134 20
-147 24 -8 3 -13 -4 -13 -15z"/>
<path d="M1583 548 c-6 -12 6 -28 22 -28 16 0 28 -27 15 -35 -6 -4 -16 -3 -22
1 -7 4 -6 -1 3 -10 14 -15 21 -15 65 -4 27 7 55 18 62 25 7 7 18 13 23 13 24
0 5 29 -23 36 -44 10 -139 11 -145 2z"/>
<path d="M8905 520 c-4 -6 -3 -34 1 -63 15 -98 2 -137 -46 -137 -16 0 -35 -3
-44 -6 -17 -7 -22 -34 -7 -34 5 0 9 -19 8 -42 -2 -40 -4 -41 -48 -54 -26 -8
-52 -21 -59 -29 -7 -8 -23 -15 -36 -15 -12 0 -26 -5 -29 -10 -3 -5 3 -10 13
-10 22 0 47 -25 38 -38 -3 -6 1 -15 9 -22 8 -7 15 -20 15 -30 0 -25 20 -30
116 -30 78 0 84 2 84 20 0 30 35 39 89 22 25 -8 53 -21 62 -29 13 -10 119 -13
567 -13 304 0 552 4 552 8 0 21 -39 42 -78 42 -35 0 -47 6 -89 47 -27 27 -62
59 -79 72 -44 34 -172 101 -224 119 -25 8 -53 21 -62 30 -10 8 -47 23 -84 33
-75 21 -118 45 -108 60 4 6 39 8 92 5 97 -6 134 -13 171 -32 13 -7 28 -11 33
-8 4 3 16 0 27 -6 11 -5 37 -12 59 -15 40 -5 92 -25 125 -48 14 -10 19 -9 27
3 7 12 12 12 22 2 6 -6 21 -12 33 -12 12 0 26 -5 31 -10 12 -12 119 -42 152
-42 12 0 22 -4 22 -8 0 -4 30 -13 68 -19 103 -18 215 -42 237 -51 11 -4 54
-18 95 -30 41 -12 88 -26 104 -31 16 -5 31 -9 32 -9 2 0 4 72 4 160 l0 160
-26 -10 c-30 -12 -97 -13 -108 -3 -12 13 -87 32 -102 26 -7 -2 -47 2 -89 11
-43 9 -98 16 -124 16 -25 0 -69 9 -97 19 -45 18 -82 20 -360 22 -448 3 -632
-3 -603 -22 8 -5 9 -9 4 -9 -6 0 -16 5 -23 12 -7 7 -12 9 -12 5 0 -4 -12 -1
-27 6 -16 8 -44 15 -63 15 -19 1 -75 6 -125 12 -113 13 -132 13 -140 0z"/>
<path d="M1580 430 c-13 -8 -12 -10 3 -10 9 0 17 5 17 10 0 12 -1 12 -20 0z"/>
<path d="M9610 390 c0 -5 7 -10 16 -10 8 0 12 5 9 10 -3 6 -10 10 -16 10 -5 0
-9 -4 -9 -10z"/>
<path d="M8355 269 c-4 -13 -2 -25 5 -29 7 -4 9 -13 6 -19 -4 -6 1 -14 11 -18
10 -4 25 -15 34 -25 9 -10 20 -18 25 -18 5 0 20 -6 34 -13 27 -14 90 -5 90 13
0 10 -61 70 -72 70 -5 0 -8 9 -8 20 0 14 -11 22 -37 29 -58 16 -81 14 -88 -10z"/>
<path d="M1564 219 c-2 -4 3 -12 10 -18 11 -9 19 -9 35 1 12 7 21 16 21 20 0
9 -60 6 -66 -3z"/>
<path d="M8405 31 c-3 -2 -5 -10 -5 -18 0 -9 15 -13 50 -13 44 0 50 3 50 20 0
18 -6 21 -45 19 -25 -2 -48 -5 -50 -8z"/>
<path d="M2405 10 c-17 -7 -14 -9 13 -9 20 -1 31 3 27 9 -7 12 -13 12 -40 0z"/>
</g>
</svg>
