<?xml version="1.0" standalone="no"?>
<!DOCTYPE svg PUBLIC "-//W3C//DTD SVG 20010904//EN"
 "http://www.w3.org/TR/2001/REC-SVG-20010904/DTD/svg10.dtd">
<svg version="1.0" xmlns="http://www.w3.org/2000/svg"
 width="300.000000pt" height="400.000000pt" viewBox="0 0 300.000000 400.000000"
 preserveAspectRatio="xMidYMid meet">
<metadata>
Created by potrace 1.10, written by Peter Selinger 2001-2011
</metadata>
<g transform="translate(0.000000,400.000000) scale(0.100000,-0.100000)"
fill="#000000" stroke="none">
<path d="M2976 3379 c-11 -16 -12 -26 -5 -35 7 -8 6 -14 -2 -19 -6 -4 -14 -2
-18 4 -4 6 -15 9 -24 5 -28 -10 -20 -27 30 -62 l32 -22 6 21 c4 13 2 25 -5 29
-7 4 -10 15 -7 24 3 8 2 18 -4 22 -6 4 -4 13 7 25 9 11 15 22 12 25 -3 3 -13
-5 -22 -17z"/>
<path d="M2966 3125 c4 -8 10 -15 15 -15 4 0 6 -6 3 -14 -3 -8 -1 -17 5 -21
15 -9 14 38 -1 53 -17 17 -29 15 -22 -3z"/>
<path d="M46 3115 c-11 -8 -16 -15 -12 -15 5 0 3 -7 -4 -15 -18 -22 -4 -31 18
-12 23 21 32 21 32 3 0 -7 -9 -16 -20 -19 -25 -6 -26 -27 -2 -27 25 0 62 52
55 79 -6 25 -38 28 -67 6z"/>
<path d="M2863 3104 c0 -13 4 -27 9 -30 5 -3 6 -15 2 -26 -5 -17 -3 -20 14
-16 13 4 23 0 26 -9 3 -8 11 -11 17 -8 6 4 9 1 7 -8 -2 -9 0 -16 5 -16 32 -3
37 1 37 28 0 26 -4 30 -32 33 -19 2 -32 8 -31 15 2 7 -4 10 -12 7 -11 -5 -15
1 -15 19 0 14 -6 27 -14 30 -9 4 -13 -2 -13 -19z"/>
<path d="M2810 3097 c0 -13 8 -31 18 -40 22 -20 39 -23 24 -4 -5 6 -12 23 -14
36 -4 33 -28 40 -28 8z"/>
<path d="M7 3043 c-11 -11 -8 -145 3 -138 6 3 10 14 10 23 0 9 7 30 15 46 14
26 14 28 -3 24 -15 -4 -17 0 -14 23 4 29 1 35 -11 22z"/>
<path d="M2891 2958 c11 -20 30 -20 36 -1 2 6 -7 13 -21 15 -22 4 -24 3 -15
-14z"/>
<path d="M2977 2899 c-10 -18 -15 -34 -11 -38 4 -3 9 0 11 7 3 6 9 10 14 6 5
-3 9 9 9 25 0 17 -1 31 -2 31 -2 0 -11 -14 -21 -31z"/>
<path d="M2908 2885 c4 -22 25 -33 23 -12 -1 4 -1 14 -1 22 0 8 -6 15 -14 15
-9 0 -12 -8 -8 -25z"/>
<path d="M2720 2833 c2 -30 90 -81 90 -52 0 6 10 19 23 30 l22 18 -29 1 c-21
0 -27 -4 -22 -15 11 -29 -24 -29 -50 -1 -25 27 -34 32 -34 19z"/>
<path d="M0 2785 c0 -18 5 -20 35 -17 19 2 32 8 29 13 -3 6 -15 7 -26 3 -13
-4 -24 -1 -29 7 -7 11 -9 9 -9 -6z"/>
<path d="M2845 2790 c3 -5 2 -18 -4 -28 -7 -14 -5 -21 11 -31 11 -7 22 -10 25
-7 10 9 -8 64 -23 70 -8 3 -12 1 -9 -4z"/>
<path d="M90 2742 c-19 -15 -29 -18 -44 -10 -14 7 -22 6 -35 -7 -15 -15 -14
-16 19 -13 27 2 35 -1 38 -15 3 -16 0 -18 -19 -12 -19 6 -20 5 -8 -7 7 -8 22
-13 33 -10 13 4 17 1 14 -9 -3 -8 -11 -14 -19 -14 -20 0 -33 -25 -20 -38 6 -6
11 -21 11 -34 0 -28 20 -30 43 -3 22 26 21 30 -3 30 -11 0 -20 4 -20 8 0 12
34 42 48 42 7 0 12 5 12 10 0 6 -6 10 -13 10 -7 0 -22 6 -32 14 -19 13 -18 15
13 28 30 12 32 15 20 31 -13 18 -15 18 -38 -1z"/>
<path d="M2653 2753 c-20 -7 -15 -30 7 -36 16 -4 20 0 20 19 0 24 -4 27 -27
17z"/>
<path d="M2961 2705 c-13 -14 -29 -25 -37 -25 -22 0 -17 -48 6 -55 24 -8 25
-18 5 -35 -17 -14 -20 -50 -5 -50 6 0 15 11 20 24 5 13 14 26 21 28 17 6 3 58
-16 58 -8 0 -15 7 -15 15 0 8 9 15 20 15 14 0 20 7 20 23 0 18 2 19 10 7 8
-13 10 -12 10 3 0 23 -11 21 -39 -8z"/>
<path d="M2705 2690 c-13 -15 -15 -24 -8 -31 8 -8 14 -5 22 10 7 12 18 21 26
21 7 0 17 5 20 10 12 19 -42 10 -60 -10z"/>
<path d="M2760 2664 c0 -9 -9 -18 -20 -21 -19 -5 -19 -7 -4 -17 11 -9 14 -20
10 -34 -10 -30 -28 -27 -48 8 -9 17 -24 30 -33 30 -20 0 -19 -6 10 -44 14 -18
22 -36 17 -40 -4 -4 5 -5 21 -1 17 5 27 3 27 -4 0 -6 4 -11 9 -11 4 0 6 11 3
25 -3 16 0 25 8 25 7 0 10 7 7 15 -4 8 -2 17 3 20 13 8 13 65 0 65 -5 0 -10
-7 -10 -16z"/>
<path d="M2823 2643 c-10 -3 -10 -9 0 -24 14 -23 50 -25 67 -4 10 13 9 15 -8
15 -12 0 -24 5 -27 10 -7 11 -13 11 -32 3z"/>
<path d="M2530 2568 l0 -43 15 29 c19 36 19 56 0 56 -11 0 -15 -11 -15 -42z"/>
<path d="M1359 2579 c19 -17 21 -24 10 -28 -21 -7 -67 -62 -80 -96 -6 -16 -14
-37 -18 -45 -4 -8 -8 -43 -9 -76 -2 -45 1 -63 11 -67 16 -6 30 -47 17 -47 -5
0 -11 6 -13 13 -2 6 -3 -1 -1 -17 5 -37 12 -44 25 -26 8 11 10 8 6 -12 -2 -16
-1 -28 3 -28 4 0 15 -21 25 -47 10 -27 32 -63 50 -81 36 -36 105 -64 125 -52
8 5 -2 10 -29 15 -45 7 -101 54 -101 83 1 9 10 28 21 42 18 21 27 24 82 22 34
-1 70 -5 81 -8 11 -4 16 -2 12 4 -7 12 -80 25 -135 25 -34 0 -43 -8 -55 -45
-15 -49 -61 34 -72 128 -5 42 -1 58 25 108 34 64 39 88 16 80 -8 -4 -15 -14
-15 -24 0 -36 -15 -27 -17 10 -3 44 32 84 74 86 15 0 29 6 31 13 3 10 -4 11
-27 6 -26 -6 -30 -4 -24 10 5 14 14 16 52 11 25 -4 69 -7 96 -8 28 0 53 -5 58
-12 5 -8 10 -7 16 4 6 8 13 11 18 6 4 -4 0 -12 -10 -17 -19 -11 -23 -29 -6
-29 13 0 34 -20 42 -40 3 -10 6 -6 7 10 1 14 4 20 6 13 3 -7 13 -9 22 -6 12 3
13 2 4 -4 -12 -9 -12 -46 1 -59 12 -12 8 -24 -8 -24 -18 0 -19 -11 -3 -45 15
-34 -5 -143 -37 -205 -41 -76 -48 -101 -31 -114 29 -22 8 -62 -53 -99 -31 -19
-63 -37 -71 -40 -10 -4 -8 -6 7 -6 11 -1 50 18 85 42 l63 42 -3 57 c-5 68 14
128 40 128 20 0 48 48 48 82 0 18 -2 20 -9 8 -6 -8 -7 -18 -5 -22 3 -4 1 -8
-5 -8 -19 0 -20 17 0 46 10 16 19 41 19 56 0 15 4 29 9 32 7 5 1 53 -12 101
-8 29 -30 55 -50 60 -13 4 -28 19 -34 36 -6 16 -18 29 -27 29 -9 0 -16 3 -16
8 0 4 -28 8 -63 10 -58 2 -102 8 -102 13 0 1 -9 3 -20 5 -11 1 -31 6 -45 10
l-25 7 24 -24z"/>
<path d="M2820 2542 c0 -42 3 -50 15 -46 18 7 18 9 3 34 -11 17 -10 22 0 29
10 6 10 10 -3 21 -13 11 -15 6 -15 -38z"/>
<path d="M68 2510 c-31 -32 -53 -38 -61 -17 -3 7 -6 5 -6 -5 -1 -10 3 -18 9
-18 5 0 7 -6 4 -14 -3 -8 -1 -17 5 -21 14 -8 38 15 42 40 2 11 15 22 29 25 14
3 26 14 28 23 5 26 -16 20 -50 -13z"/>
<path d="M2640 2505 c0 -18 -5 -25 -20 -25 -11 0 -20 -4 -20 -10 0 -5 5 -10
11 -10 7 0 8 -11 4 -30 -4 -16 -3 -30 2 -30 10 0 41 20 31 20 -10 0 12 60 23
60 17 0 9 25 -11 38 -18 11 -20 10 -20 -13z"/>
<path d="M206 2512 c-2 -4 0 -16 4 -26 4 -14 9 -16 14 -8 10 17 26 15 26 -3 0
-8 -6 -15 -14 -15 -8 0 -16 -6 -19 -12 -3 -8 -12 -3 -27 15 -27 33 -35 30 -20
-8 10 -25 9 -27 -11 -22 -16 4 -19 3 -11 -5 9 -9 7 -17 -5 -31 -17 -18 -17
-18 12 -5 17 7 35 19 41 27 11 14 34 8 34 -10 0 -5 -9 -17 -20 -26 -20 -17
-28 -73 -11 -73 14 0 38 42 46 80 4 19 11 40 16 46 18 23 6 61 -23 72 -15 5
-30 7 -32 4z"/>
<path d="M1433 2444 c-23 -24 -38 -44 -32 -44 14 0 81 69 77 79 -2 5 -22 -11
-45 -35z"/>
<path d="M2767 2483 c-4 -3 -7 -15 -7 -25 0 -15 8 -18 50 -18 28 0 50 2 50 4
0 15 -82 50 -93 39z"/>
<path d="M2834 2402 c-46 -3 -61 -25 -39 -55 17 -24 25 -21 25 7 0 13 6 26 12
28 14 5 48 -33 48 -53 0 -10 4 -9 15 2 12 12 14 22 6 41 -12 32 -16 34 -67 30z"/>
<path d="M2660 2370 c0 -22 26 -38 40 -24 5 5 -2 17 -16 27 -23 17 -24 17 -24
-3z"/>
<path d="M1385 2365 c-30 -14 -30 -14 -3 -9 15 4 41 1 58 -4 37 -13 41 4 4 18
-14 6 -26 10 -27 10 -1 -1 -15 -7 -32 -15z"/>
<path d="M1536 2352 c-3 -5 10 -9 29 -10 20 -1 45 -7 58 -13 22 -12 22 -12 3
10 -19 21 -79 30 -90 13z"/>
<path d="M2720 2328 c0 -30 13 -58 26 -58 21 0 17 44 -6 58 -16 10 -20 10 -20
0z"/>
<path d="M63 2309 c-11 -11 -6 -49 7 -49 4 0 7 14 8 30 1 34 0 34 -15 19z"/>
<path d="M1370 2310 c-11 -7 -5 -10 25 -11 35 -1 37 -2 15 -9 -22 -7 -20 -8
13 -7 21 1 37 6 37 13 0 23 -61 32 -90 14z"/>
<path d="M1537 2303 c-9 -8 24 -32 43 -32 10 0 8 4 -5 10 -16 7 -13 8 14 4 29
-4 32 -3 21 10 -12 15 -61 21 -73 8z"/>
<path d="M2948 2302 c-10 -2 -18 -7 -18 -12 0 -5 -3 -16 -7 -26 -5 -14 -2 -16
17 -11 16 4 31 0 42 -10 23 -21 23 -2 1 35 -11 17 -25 26 -35 24z"/>
<path d="M191 2274 c-6 -13 -15 -24 -21 -24 -5 0 -10 -7 -10 -15 0 -8 -4 -15
-10 -15 -5 0 -7 -6 -4 -14 3 -8 -3 -23 -14 -34 -20 -20 -37 -66 -20 -56 6 4 6
-2 -1 -14 -15 -29 -14 -32 14 -32 14 0 25 -4 25 -10 0 -5 7 -10 15 -10 8 0 15
3 15 8 0 4 18 18 39 32 55 33 40 47 -16 15 -24 -15 -46 -25 -47 -23 -22 27
-23 44 -1 73 13 16 26 44 28 60 3 25 8 30 29 27 35 -3 44 30 12 45 -19 9 -24
7 -33 -13z"/>
<path d="M2803 2278 c19 -51 18 -58 -2 -58 -27 0 -27 -16 0 -23 25 -7 21 -28
-10 -43 l-22 -11 23 -7 c34 -9 38 -8 38 9 0 8 5 15 11 15 8 0 8 4 -1 15 -14
16 -5 35 16 35 14 0 34 38 34 66 0 8 -6 14 -14 14 -9 0 -12 -7 -9 -20 4 -14 0
-20 -10 -20 -9 0 -21 9 -27 20 -12 22 -35 28 -27 8z"/>
<path d="M2742 2240 c-14 -12 -19 -21 -11 -25 6 -4 19 2 30 13 24 27 11 36
-19 12z"/>
<path d="M258 2201 c3 -21 -2 -33 -19 -45 -18 -12 -20 -16 -7 -16 17 0 50 -38
43 -50 -7 -11 33 -4 48 8 8 7 13 21 10 32 -4 13 1 19 19 22 37 5 29 34 -8 30
-24 -3 -35 2 -48 22 -23 36 -44 34 -38 -3z"/>
<path d="M1540 2221 c0 -5 11 -23 26 -38 l25 -28 -15 32 c-16 33 -36 52 -36
34z"/>
<path d="M2620 2182 c0 -44 6 -53 26 -45 11 4 12 9 3 19 -6 8 -9 25 -7 39 4
17 1 25 -8 25 -10 0 -14 -13 -14 -38z"/>
<path d="M2913 2207 c-20 -30 -31 -57 -25 -57 4 0 13 9 20 20 8 13 21 20 35
18 31 -4 32 15 2 24 -15 4 -28 2 -32 -5z"/>
<path d="M1450 2199 c0 -5 8 -9 18 -10 9 0 29 -2 44 -4 18 -2 25 0 22 9 -5 14
-84 19 -84 5z"/>
<path d="M2683 2193 c-18 -7 -16 -33 1 -33 20 0 31 -21 17 -30 -17 -10 14 -34
35 -26 13 5 14 9 4 21 -7 8 -10 26 -8 39 6 30 -16 43 -49 29z"/>
<path d="M467 2124 c-4 -4 0 -15 9 -25 20 -22 4 -32 -31 -19 -29 11 -65 5 -65
-10 0 -5 -8 -16 -17 -26 -11 -10 -16 -29 -14 -47 2 -26 0 -29 -18 -24 -12 3
-21 4 -21 4 0 -1 6 -19 14 -41 l13 -38 16 22 c9 13 22 20 30 17 7 -3 20 -1 28
3 11 7 10 10 -4 16 -15 5 -15 9 -5 22 10 12 10 16 1 19 -7 3 -13 12 -13 21 0
8 3 13 6 10 3 -4 17 0 31 7 26 14 57 10 47 -6 -9 -15 13 -10 26 6 22 27 -9
112 -33 89z"/>
<path d="M2881 2121 c-11 -7 -11 -9 0 -13 11 -4 10 -12 -5 -38 -17 -29 -17
-32 -1 -28 9 1 23 20 30 40 15 46 8 59 -24 39z"/>
<path d="M2450 2101 c0 -12 6 -21 16 -21 9 0 14 7 12 17 -5 25 -28 28 -28 4z"/>
<path d="M2975 2100 c-5 -14 -12 -19 -24 -15 -15 4 -19 -2 -24 -32 -7 -43 -6
-46 17 -37 15 6 56 76 56 96 0 17 -19 7 -25 -12z"/>
<path d="M2608 2079 c-9 -22 7 -43 26 -36 20 8 21 27 2 27 -8 0 -16 5 -18 12
-3 8 -6 7 -10 -3z"/>
<path d="M252 2045 c-10 -21 -9 -25 4 -25 13 0 64 39 53 41 -2 0 -13 2 -25 4
-15 3 -24 -3 -32 -20z"/>
<path d="M2454 2059 c-4 -7 1 -16 10 -21 9 -5 16 -16 16 -23 0 -20 26 -19 34
0 3 8 2 15 -3 15 -5 0 -11 9 -14 20 -6 22 -32 27 -43 9z"/>
<path d="M2813 2062 c-8 -5 -6 -13 7 -30 19 -23 31 -13 22 21 -5 19 -11 21
-29 9z"/>
<path d="M0 2051 c0 -9 30 -21 63 -25 24 -4 21 1 -13 19 -33 17 -50 19 -50 6z"/>
<path d="M2733 2016 c-4 -8 -17 -14 -28 -13 -15 2 -19 -3 -17 -18 2 -11 3 -27
3 -35 0 -8 5 -25 11 -37 9 -18 15 -20 30 -12 10 5 23 7 28 4 17 -11 0 -25 -29
-25 -16 0 -34 -7 -41 -15 -11 -13 -8 -15 15 -15 18 0 28 -6 32 -20 3 -11 9
-20 14 -20 12 0 11 14 -2 27 -6 6 -8 17 -4 23 7 12 39 9 80 -6 18 -7 18 -6 6
9 -11 14 -11 20 0 35 20 25 32 32 46 27 17 -6 26 12 19 40 -5 21 -8 22 -31 12
-14 -7 -25 -16 -25 -22 0 -5 -9 -21 -20 -35 -20 -25 -20 -25 -36 -5 -8 11 -21
19 -28 17 -8 -1 -21 9 -29 22 -14 20 -14 26 -3 35 11 9 18 8 29 -4 21 -20 26
-19 20 5 -8 30 -30 44 -40 26z"/>
<path d="M2541 1991 c-11 -7 -11 -9 0 -13 7 -2 12 -18 11 -39 -1 -25 4 -38 18
-47 22 -13 27 -3 8 16 -9 9 -9 15 -1 23 6 6 9 18 6 25 -6 17 19 18 35 2 10
-10 15 -10 22 2 5 8 8 19 7 24 -4 12 -89 17 -106 7z"/>
<path d="M1340 1974 c0 -21 86 -104 108 -104 9 0 -7 17 -36 38 -28 20 -52 45
-52 54 0 9 -4 20 -10 23 -5 3 -10 -2 -10 -11z"/>
<path d="M2930 1954 c-7 -19 -8 -30 0 -38 16 -16 12 -57 -7 -79 -13 -14 -6
-11 22 7 22 15 41 29 44 31 2 3 -8 16 -22 29 -15 14 -27 30 -27 36 0 18 28 11
44 -12 9 -12 16 -18 16 -13 -1 12 -19 35 -42 54 -16 12 -19 10 -28 -15z"/>
<path d="M2483 1910 c-9 -24 -9 -30 2 -30 13 0 25 21 25 46 0 24 -15 15 -27
-16z"/>
<path d="M1650 1924 c0 -6 7 -17 15 -24 8 -7 15 -24 16 -39 0 -14 3 -20 6 -13
2 6 17 12 31 12 26 1 25 2 -10 20 -20 11 -42 28 -47 37 -6 10 -11 13 -11 7z"/>
<path d="M2627 1902 c-27 -30 -22 -49 13 -44 27 4 28 6 18 26 -6 11 -10 23 -9
24 2 2 1 6 -2 8 -2 2 -11 -4 -20 -14z"/>
<path d="M332 1854 c-7 -14 -17 -22 -22 -19 -6 3 -10 0 -10 -8 0 -10 7 -13 19
-10 10 3 22 0 25 -6 4 -6 11 -11 16 -11 16 0 41 46 34 64 -10 26 -49 20 -62
-10z"/>
<path d="M1149 1846 c-109 -38 -165 -74 -203 -130 -32 -46 -97 -211 -95 -239
1 -14 37 63 38 81 1 7 8 29 17 50 10 20 19 45 21 55 1 10 9 25 17 33 8 8 23
25 33 38 23 29 113 78 185 101 29 10 57 21 63 26 14 14 -3 10 -76 -15z"/>
<path d="M1375 1820 c-21 -22 -36 -43 -32 -47 4 -4 14 3 22 14 8 12 23 20 32
18 10 -2 23 -4 29 -4 20 -2 25 -32 9 -54 -19 -27 -19 -43 -1 -28 8 7 17 23 20
37 4 14 11 22 16 19 6 -4 22 3 36 14 28 22 49 28 39 11 -3 -5 -1 -10 6 -10 6
0 18 -8 25 -17 7 -10 14 -13 14 -8 0 6 -14 28 -31 48 -23 27 -35 35 -42 28
-16 -16 -67 -13 -73 4 -10 24 -27 18 -69 -25z"/>
<path d="M1757 1848 c7 -8 32 -20 55 -27 24 -7 71 -33 104 -57 62 -44 96 -88
113 -147 6 -20 9 -25 10 -12 1 29 -42 116 -70 141 -34 30 -96 67 -149 88 -81
32 -76 31 -63 14z"/>
<path d="M509 1822 c-11 -33 -23 -40 -34 -22 -3 6 -12 10 -20 10 -15 0 -65
-46 -65 -59 0 -5 -7 -14 -15 -21 -12 -10 -16 -9 -21 3 -3 9 -12 13 -21 10 -9
-4 -19 1 -25 10 -16 29 -28 19 -12 -10 7 -16 14 -34 14 -41 0 -9 5 -10 19 -2
31 16 59 12 72 -11 6 -12 14 -17 18 -12 3 6 23 13 43 17 36 7 56 21 45 33 -4
3 -20 1 -36 -5 -35 -12 -47 -2 -31 28 13 24 33 26 54 4 20 -20 40 -9 27 15 -7
13 -5 24 6 40 11 17 12 26 4 34 -8 8 -14 2 -22 -21z"/>
<path d="M2420 1810 c-19 -16 -30 -30 -23 -30 22 0 93 42 87 51 -9 16 -28 10
-64 -21z"/>
<path d="M2626 1812 c1 -25 4 -27 48 -26 42 0 47 -2 42 -18 -3 -14 0 -18 11
-16 26 5 26 24 1 48 -14 13 -31 19 -44 16 -11 -3 -29 1 -40 8 -18 13 -19 12
-18 -12z"/>
<path d="M2488 1799 c-13 -17 -33 -35 -45 -40 -28 -10 -29 -19 -4 -48 16 -18
25 -21 60 -15 37 6 39 8 29 27 -8 16 -7 23 6 32 15 11 14 13 -5 18 -17 5 -20
11 -15 31 8 34 2 33 -26 -5z"/>
<path d="M2816 1822 c-6 -11 9 -25 37 -35 23 -9 17 -32 -9 -32 -10 0 -20 -8
-22 -18 -5 -23 9 -22 37 4 12 12 30 19 39 17 10 -3 24 1 31 9 11 12 10 14 -5
11 -12 -2 -19 3 -19 12 0 8 -11 18 -25 21 -14 4 -32 10 -41 13 -10 4 -20 3
-23 -2z"/>
<path d="M2772 1772 c-12 -13 -20 -27 -17 -33 10 -15 25 -10 25 9 0 10 5 23
12 30 6 6 10 13 7 15 -2 2 -14 -8 -27 -21z"/>
<path d="M2585 1746 c-6 -20 -4 -31 3 -34 23 -7 11 -22 -13 -16 -19 5 -25 2
-25 -11 0 -9 5 -13 11 -9 6 3 23 -6 38 -20 22 -21 33 -25 59 -20 38 8 41 28
11 61 -18 18 -20 25 -9 38 16 19 1 19 -27 0 -20 -14 -22 -13 -31 13 l-10 27
-7 -29z m65 -66 c0 -31 -6 -36 -29 -21 -17 11 -5 51 15 51 9 0 14 -11 14 -30z"/>
<path d="M1470 1743 c0 -13 -5 -23 -11 -23 -8 0 -7 -6 2 -17 10 -11 10 -14 1
-9 -8 5 -16 -2 -23 -21 -10 -26 -12 -26 -19 -8 -5 14 -11 -9 -19 -70 -7 -49
-17 -121 -22 -159 -10 -72 -7 -88 14 -66 10 10 9 11 -3 5 -12 -7 -13 -6 -4 6
6 8 10 22 9 32 -2 12 3 17 18 17 20 0 21 0 1 16 -10 8 -12 12 -4 8 13 -7 13
-6 1 10 -10 12 -11 20 -4 24 5 4 15 23 22 44 12 38 35 55 47 36 4 -7 3 -8 -4
-4 -7 4 -12 3 -12 -3 0 -5 5 -13 11 -16 10 -7 11 -89 1 -128 -4 -15 -7 -16
-14 -5 -6 9 -7 6 -3 -10 7 -23 -13 -82 -28 -82 -5 0 -6 -4 -3 -9 3 -5 -9 -7
-27 -4 l-33 4 -33 -233 c-19 -128 -36 -246 -38 -263 -3 -22 3 -39 25 -64 l29
-34 39 35 c21 20 35 40 31 45 -5 4 -21 -7 -36 -26 -17 -20 -33 -31 -40 -27
-15 10 -3 28 12 19 7 -3 3 3 -7 15 -11 12 -14 22 -8 22 9 0 9 6 1 24 -9 19 -8
31 4 55 10 20 11 30 4 28 -8 -1 -11 11 -10 33 2 19 3 43 3 53 1 9 5 15 11 12
12 -8 7 58 -6 67 -6 5 -5 8 3 8 6 0 12 9 12 20 0 21 15 52 39 83 13 16 13 17
-3 11 -14 -5 -16 -2 -11 17 3 13 7 34 8 47 0 12 7 22 14 22 7 0 16 0 21 0 4 1
9 -16 12 -36 8 -58 30 -56 30 3 0 26 5 80 10 118 4 39 11 135 15 215 6 123 4
148 -9 165 -15 20 -15 20 -16 -2z"/>
<path d="M2919 1733 c0 -5 -2 -16 -4 -25 -4 -22 8 -23 40 -2 21 14 24 14 34
-3 10 -17 10 -16 11 3 0 14 -8 24 -22 28 -32 8 -58 7 -59 -1z"/>
<path d="M560 1720 c0 -6 7 -13 15 -16 8 -4 15 -17 15 -31 0 -15 5 -23 13 -21
22 8 19 38 -5 58 -26 22 -38 25 -38 10z"/>
<path d="M2857 1689 c-22 -13 -13 -29 17 -29 29 0 39 10 25 27 -13 15 -18 16
-42 2z"/>
<path d="M349 1652 c-8 -10 -14 -23 -11 -30 4 -14 52 -16 52 -2 0 6 -4 10 -9
10 -5 0 -11 9 -13 20 -3 20 -4 20 -19 2z"/>
<path d="M495 1663 c-39 -6 -49 -16 -40 -42 7 -25 25 -28 25 -5 0 24 24 11 31
-17 l6 -24 11 25 10 25 7 -28 c5 -19 12 -26 22 -23 8 3 17 6 19 6 11 0 2 23
-16 42 -11 12 -20 28 -20 35 0 7 -6 12 -12 12 -7 -1 -26 -4 -43 -6z"/>
<path d="M2511 1648 c1 -7 0 -20 -4 -28 -12 -33 -15 -60 -5 -66 5 -3 7 -12 4
-20 -9 -23 8 -16 19 9 6 12 17 21 24 19 17 -4 6 65 -14 84 -17 17 -26 18 -24
2z"/>
<path d="M2804 1644 c3 -9 6 -20 6 -25 0 -5 9 -9 20 -9 25 0 26 18 3 36 -24
18 -36 17 -29 -2z"/>
<path d="M2920 1639 c0 -15 -5 -19 -15 -15 -9 3 -15 0 -15 -9 0 -8 -7 -15 -17
-15 -14 0 -15 -2 -1 -17 9 -10 13 -24 11 -30 -3 -7 0 -13 6 -13 6 0 11 4 11 9
0 5 9 11 20 14 11 3 19 11 18 18 -2 7 8 16 22 20 l25 7 -22 7 c-13 4 -23 15
-23 26 0 11 -4 19 -10 19 -5 0 -10 -9 -10 -21z"/>
<path d="M661 1599 c-8 -24 -8 -36 1 -46 9 -11 14 -7 28 24 10 21 15 41 13 46
-10 17 -32 5 -42 -24z"/>
<path d="M1080 1570 c-7 -33 -11 -63 -8 -66 3 -2 11 23 17 57 7 33 10 63 8 65
-2 3 -10 -23 -17 -56z"/>
<path d="M2750 1618 c0 -8 9 -24 20 -36 11 -12 20 -26 20 -32 0 -7 -8 -9 -20
-5 -11 4 -20 2 -20 -4 0 -6 4 -11 8 -11 5 0 14 -21 19 -47 12 -49 9 -68 -6
-44 -5 7 -10 11 -12 9 -2 -1 -21 10 -41 25 -39 30 -58 29 -58 -3 0 -13 5 -17
19 -13 23 6 38 -15 17 -23 -9 -3 -16 -10 -16 -16 0 -5 5 -6 10 -3 6 4 29 4 50
0 44 -7 53 -28 20 -45 -11 -6 -20 -18 -20 -27 0 -12 3 -13 13 -4 8 6 17 8 20
4 4 -3 7 0 7 8 0 8 9 25 20 39 13 17 16 28 9 37 -7 8 -7 18 0 32 9 16 8 22 -6
30 -17 10 -16 12 7 30 13 11 28 17 32 15 4 -3 8 -1 8 5 0 13 -56 52 -64 44 -3
-3 -6 -1 -6 6 0 7 -7 19 -15 27 -12 13 -15 13 -15 2z"/>
<path d="M2700 1599 c0 -7 -10 -9 -25 -7 -14 3 -25 1 -25 -3 0 -5 4 -9 9 -9 5
0 11 -10 13 -22 2 -13 9 -22 16 -20 6 1 12 -2 12 -8 0 -5 9 -10 20 -10 11 0
20 5 20 11 0 5 -4 7 -10 4 -5 -3 -10 -1 -10 4 0 6 -7 11 -15 11 -8 0 -15 6
-15 14 0 8 7 16 15 20 17 6 21 26 5 26 -5 0 -10 -5 -10 -11z"/>
<path d="M2387 1543 c-3 -16 0 -35 8 -43 7 -8 10 -21 8 -27 -3 -8 5 -13 21
-13 14 0 29 -8 35 -17 8 -15 11 -15 25 -3 11 8 13 17 7 23 -5 5 -7 15 -5 22 3
7 1 16 -5 20 -6 3 -14 -1 -17 -9 -15 -39 -47 -2 -53 62 -2 23 -19 12 -24 -15z"/>
<path d="M768 1533 l-3 -28 -22 25 c-13 13 -23 19 -23 13 0 -6 -9 -13 -21 -16
-27 -7 -19 -33 9 -29 25 4 31 -25 8 -34 -8 -3 -12 -12 -9 -20 7 -19 43 -18 43
1 0 8 14 28 31 43 24 22 30 33 25 50 -10 31 -34 27 -38 -5z"/>
<path d="M622 1533 c-16 -29 -15 -33 8 -33 22 0 23 4 11 35 -8 19 -8 19 -19
-2z"/>
<path d="M2096 1534 c-4 -10 -13 -14 -22 -10 -12 5 -15 -1 -12 -32 2 -29 7
-37 23 -37 11 0 20 -7 20 -15 0 -8 -7 -15 -15 -15 -8 0 -16 -8 -18 -17 -2 -11
3 -18 12 -18 9 0 16 6 16 14 0 8 7 16 15 20 8 3 15 12 15 20 0 7 -7 16 -15 20
-20 7 -19 36 1 36 11 0 14 5 10 16 -3 9 -6 20 -6 25 0 15 -17 10 -24 -7z"/>
<path d="M2265 1540 c3 -5 -12 -18 -35 -27 -22 -10 -40 -21 -40 -25 0 -13 35
-9 69 8 17 9 39 13 47 10 15 -6 15 -8 1 -30 -15 -22 -15 -24 3 -29 12 -3 20
-14 20 -25 0 -12 5 -24 10 -27 6 -3 10 2 10 13 0 10 10 24 23 29 23 12 23 12
-29 28 -10 3 -13 11 -9 25 4 13 2 20 -7 20 -8 0 -24 9 -36 20 -22 21 -37 27
-27 10z"/>
<path d="M2583 1486 l-31 -11 25 -12 c22 -11 28 -10 39 5 26 33 19 37 -33 18z"/>
<path d="M480 1475 c0 -8 5 -15 10 -15 6 0 10 -10 10 -22 0 -14 3 -19 10 -12
5 5 7 19 4 31 -7 25 -34 40 -34 18z"/>
<path d="M1000 1474 c0 -6 7 -28 15 -48 8 -19 17 -53 20 -73 3 -21 9 -51 15
-68 8 -25 9 -19 5 31 -2 35 -15 83 -30 115 -13 30 -25 49 -25 43z"/>
<path d="M2870 1467 c0 -9 -9 -25 -20 -34 -26 -23 -26 -25 13 -48 17 -10 36
-23 40 -29 5 -7 7 -3 5 9 -2 12 -12 21 -26 23 -28 4 -28 19 1 42 21 18 21 20
5 36 -17 17 -18 17 -18 1z"/>
<path d="M561 1441 c-9 -6 -11 -18 -6 -40 5 -23 3 -32 -9 -37 -9 -3 -16 -16
-16 -27 0 -20 1 -20 17 3 9 14 23 29 31 33 11 7 10 11 -5 22 -15 12 -16 17 -5
34 14 23 13 24 -7 12z"/>
<path d="M794 1435 c-18 -14 -18 -16 -1 -26 17 -10 16 -12 -3 -36 -15 -19 -19
-35 -15 -54 3 -15 1 -30 -4 -34 -16 -10 -13 -25 5 -25 13 0 15 -7 10 -35 -5
-25 -3 -35 6 -36 7 -1 0 -4 -17 -8 l-30 -6 24 -24 c23 -23 23 -25 6 -38 -11
-7 -24 -13 -29 -13 -17 0 -16 -48 1 -55 14 -5 13 -8 -2 -25 -10 -11 -14 -20
-9 -21 5 -1 20 -2 33 -2 15 -1 25 -9 27 -21 2 -15 -2 -17 -28 -12 -21 4 -28 2
-25 -7 2 -6 18 -12 35 -12 32 0 41 -8 22 -20 -7 -4 -7 -12 0 -25 14 -26 13
-30 -7 -23 -13 5 -15 3 -8 -13 4 -10 8 -28 7 -39 0 -11 2 -14 5 -7 8 20 26 14
20 -8 -3 -11 0 -20 5 -20 6 0 5 -6 -2 -15 -11 -13 -9 -20 10 -40 12 -13 20
-27 17 -32 -3 -5 3 -32 13 -62 9 -29 16 -74 15 -100 -3 -45 -1 -47 25 -49 27
-2 28 -1 19 25 -5 16 -15 60 -23 98 -7 39 -26 115 -40 170 -20 75 -26 119 -24
175 l3 75 47 3 c29 2 59 -3 78 -13 30 -15 31 -19 25 -58 -10 -60 -27 -117 -36
-117 -13 0 11 -71 31 -93 11 -11 22 -40 26 -65 4 -30 9 -40 15 -30 4 8 4 31
-1 51 -6 28 -5 37 5 37 34 0 18 -90 -37 -208 -39 -83 -43 -118 -24 -176 9 -25
16 -50 16 -55 0 -4 -89 -7 -197 -7 -168 1 -206 -2 -248 -17 -27 -10 -58 -27
-68 -38 -21 -22 -39 -25 -31 -5 5 12 -1 12 -33 4 -21 -6 -87 -14 -148 -17 -60
-4 -87 -8 -58 -9 28 -1 55 -6 58 -12 3 -5 -1 -10 -9 -10 -9 0 -16 -4 -16 -10
0 -15 36 -12 50 5 7 8 22 15 33 15 11 0 36 5 54 12 24 9 36 9 41 2 4 -6 21
-13 39 -16 25 -3 33 0 37 15 4 16 10 18 41 13 25 -5 35 -4 33 5 -4 17 58 29
93 19 22 -6 29 -5 29 5 0 7 6 15 13 17 17 7 38 -2 31 -13 -3 -5 1 -11 8 -13
26 -9 134 -13 163 -6 21 5 6 8 -50 9 -80 1 -126 14 -95 25 8 3 64 3 125 -2
l110 -7 3 -85 c4 -142 11 -190 29 -190 14 0 15 15 9 122 -4 67 -14 137 -21
155 -8 18 -14 34 -13 36 1 1 -5 19 -12 41 -15 45 -7 108 19 145 22 33 45 90
47 116 4 76 9 80 78 60 31 -9 63 -14 71 -11 8 3 17 2 19 -3 3 -4 19 -6 35 -3
23 3 36 -2 54 -21 20 -22 32 -26 88 -27 104 -1 172 9 195 31 11 10 27 19 36
19 8 0 35 7 59 15 48 17 89 13 89 -10 0 -15 -19 -22 -80 -29 -19 -2 -7 -2 28
-1 59 3 64 1 73 -22 5 -13 6 -35 3 -48 -4 -14 5 -60 21 -110 18 -56 25 -94 21
-112 -4 -16 -10 -41 -13 -58 -3 -16 -10 -36 -16 -43 -14 -17 -46 -159 -47
-204 0 -26 4 -38 14 -38 10 0 18 21 25 68 6 37 14 90 19 117 l8 50 44 1 c101
2 110 4 110 20 0 13 -12 15 -70 13 -39 -1 -72 0 -75 3 -3 3 2 22 11 44 20 48
14 113 -16 175 -17 36 -19 49 -11 72 12 32 29 34 63 7 14 -10 29 -16 33 -12 5
4 5 2 2 -4 -4 -6 -1 -25 5 -41 10 -26 9 -34 -10 -58 -12 -15 -22 -32 -22 -36
0 -14 27 -10 44 6 17 17 46 20 46 5 0 -5 -8 -11 -17 -11 -10 -1 0 -5 22 -9 30
-6 43 -5 51 6 15 18 34 18 34 -1 0 -12 14 -15 62 -15 75 0 68 16 -11 29 -29 5
-57 14 -61 21 -6 9 -11 7 -19 -9 -7 -11 -21 -21 -31 -21 -24 0 -26 13 -4 34
14 15 13 16 -16 16 -29 0 -32 2 -26 24 3 14 1 28 -6 32 -7 5 -9 2 -4 -7 4 -8
1 -5 -6 5 -7 11 -21 28 -30 38 -10 10 -18 24 -18 31 1 6 13 -3 29 -21 30 -35
41 -33 41 9 0 15 7 29 15 33 11 4 14 13 9 31 -5 21 -2 27 13 31 15 4 19 12 15
30 -2 14 0 35 7 47 6 12 15 40 19 62 7 35 11 40 35 39 18 -1 20 0 7 3 -18 4
-40 38 -40 60 0 3 14 3 31 -1 25 -5 32 -2 36 14 3 11 9 20 14 20 14 0 11 26
-4 39 -16 12 -9 81 12 119 10 18 9 23 -3 28 -19 7 -38 -4 -30 -18 4 -6 1 -9
-7 -6 -26 9 -22 56 7 83 l28 26 -23 16 -24 16 23 12 23 12 -21 19 c-12 10 -22
29 -22 42 0 13 -4 20 -10 17 -5 -3 -10 -37 -10 -75 0 -38 -4 -80 -10 -95 -8
-20 -5 -39 10 -83 12 -31 22 -79 24 -105 4 -46 2 -49 -24 -58 -24 -9 -29 -18
-35 -57 -10 -66 -30 -139 -53 -192 -11 -25 -23 -60 -27 -78 l-7 -33 -23 26
c-28 29 -92 36 -101 10 -10 -25 -24 -17 -24 14 0 34 17 50 27 25 12 -33 41 75
48 179 9 150 5 142 76 156 67 14 88 6 90 -33 0 -21 1 -20 11 2 24 49 -31 65
-154 46 -43 -7 -50 7 -20 39 16 19 16 19 -3 15 -18 -3 -20 -11 -20 -103 -1
-208 -4 -255 -19 -255 -8 0 -16 -5 -18 -12 -3 -8 -11 -7 -28 5 -14 9 -37 17
-52 17 -50 0 -173 -31 -181 -45 -11 -20 -30 -19 -129 5 -46 11 -109 20 -140
20 -60 0 -187 36 -232 65 -14 9 -31 13 -37 9 -7 -4 -9 -3 -6 3 3 5 -7 17 -23
26 l-28 17 18 57 c10 32 27 83 39 113 24 62 25 70 11 70 -5 0 -10 -7 -10 -15
0 -20 -20 -19 -35 2 -8 11 -32 18 -74 21 -58 4 -65 2 -92 -24 -21 -20 -32 -25
-40 -17 -14 14 3 76 26 99 9 9 14 23 10 32 -3 8 0 21 6 28 9 11 8 25 -1 59
-12 43 -10 92 6 183 7 35 -2 40 -32 17z m583 -791 c10 -1 36 -2 57 -3 22 0 36
-4 33 -8 -4 -4 -33 -6 -65 -4 -56 2 -89 21 -76 43 3 5 12 1 19 -9 8 -10 22
-18 32 -19z"/>
<path d="M2543 1406 c1 -19 5 -32 9 -30 4 2 9 0 13 -6 10 -16 25 -12 25 6 0
10 -6 14 -15 10 -18 -7 -21 20 -2 27 9 4 8 8 -3 16 -24 17 -29 13 -27 -23z"/>
<path d="M2196 1376 c-20 -49 -20 -49 7 -34 12 7 30 11 40 9 22 -3 59 27 51
41 -3 5 -16 3 -28 -6 -24 -15 -40 -11 -48 14 -3 10 -11 2 -22 -24z"/>
<path d="M2113 1384 c-9 -23 13 -40 32 -24 8 7 15 19 15 26 0 19 -39 18 -47
-2z"/>
<path d="M50 1353 c-30 -21 -31 -24 -10 -18 14 4 29 11 34 15 5 5 15 2 23 -5
8 -8 21 -11 31 -7 15 6 15 7 -3 10 -11 3 -24 10 -30 17 -8 11 -17 8 -45 -12z"/>
<path d="M2331 1367 c-19 -19 -12 -33 14 -32 14 0 25 3 25 8 0 4 0 11 0 16 0
15 -27 20 -39 8z"/>
<path d="M860 1361 c0 -5 19 -13 41 -19 24 -6 38 -7 32 -1 -13 13 -73 29 -73
20z"/>
<path d="M2450 1344 c0 -10 28 -34 39 -34 17 0 13 27 -5 34 -20 8 -34 8 -34 0z"/>
<path d="M2681 1333 c-14 -15 -9 -26 14 -29 16 -2 19 14 7 32 -5 9 -11 8 -21
-3z"/>
<path d="M2390 1326 c-6 -8 -21 -17 -33 -19 -13 -2 -6 -5 16 -6 31 -1 37 2 37
19 0 24 -4 25 -20 6z"/>
<path d="M2910 1328 c0 -5 9 -6 20 -3 16 5 23 0 33 -24 7 -17 16 -29 20 -25 5
5 1 15 -20 53 -5 9 -53 8 -53 -1z"/>
<path d="M2833 1312 c-16 -2 -23 -10 -23 -27 0 -18 4 -22 19 -18 11 3 22 14
25 26 6 25 7 24 -21 19z"/>
<path d="M1864 1282 c-4 -18 -10 -29 -15 -27 -4 3 -11 -16 -14 -42 -4 -27 -9
-57 -11 -68 -2 -11 3 -4 12 15 9 19 17 40 18 45 2 6 8 30 15 54 7 23 10 46 7
49 -3 3 -9 -9 -12 -26z"/>
<path d="M40 1275 c12 -13 27 -22 33 -18 6 4 1 14 -12 25 -34 26 -48 22 -21
-7z"/>
<path d="M2270 1281 c-13 -11 -28 -17 -32 -15 -3 2 -9 0 -13 -6 -3 -5 1 -10 9
-10 9 0 16 -9 16 -20 0 -13 7 -20 18 -20 24 0 32 -8 25 -26 -7 -19 -32 -18
-55 3 -18 16 -18 16 -10 -8 13 -34 47 -36 75 -5 14 14 35 26 48 26 18 0 20 3
11 12 -7 7 -12 20 -12 30 0 10 -4 18 -10 18 -5 0 -10 -6 -10 -13 0 -16 -29
-19 -47 -5 -17 13 -5 38 18 38 10 0 19 5 19 10 0 16 -23 11 -50 -9z"/>
<path d="M2451 1286 c-9 -11 -8 -15 5 -20 10 -4 14 -13 11 -26 -3 -12 -1 -17
5 -14 5 3 19 -2 30 -13 21 -18 21 -18 15 7 -4 14 -7 28 -7 33 0 4 -7 7 -15 7
-8 0 -15 6 -15 14 0 21 -16 28 -29 12z"/>
<path d="M2618 1256 c-11 -8 -15 -20 -11 -34 3 -13 1 -22 -6 -22 -6 0 -11 -4
-11 -9 0 -5 14 -9 30 -9 23 1 34 8 45 31 19 39 9 49 -16 17 l-20 -25 6 33 c7
36 7 37 -17 18z"/>
<path d="M1040 1236 c8 -22 7 -34 -5 -53 -15 -22 -20 -24 -83 -19 -44 4 -60 3
-47 -3 11 -5 34 -10 52 -10 45 -1 63 -10 63 -33 0 -16 -5 -19 -21 -15 -20 5
-19 4 3 -17 13 -12 25 -21 28 -19 2 2 5 27 6 55 1 35 6 53 18 60 21 12 20 27
-4 58 l-20 25 10 -29z"/>
<path d="M11 1216 c-8 -10 -9 -16 -1 -21 13 -8 30 3 30 21 0 18 -14 18 -29 0z"/>
<path d="M2846 1193 c-19 -26 -12 -31 11 -8 14 14 17 14 34 -1 18 -16 19 -16
19 -1 0 26 -4 31 -26 32 -11 0 -28 -10 -38 -22z"/>
<path d="M2950 1196 c0 -7 -7 -19 -15 -26 -9 -7 -13 -15 -11 -17 2 -3 14 5 26
17 12 12 28 19 37 16 13 -5 14 -4 3 9 -16 19 -40 20 -40 1z"/>
<path d="M2388 1173 c-23 -27 -30 -43 -20 -43 11 0 46 50 39 56 -2 2 -11 -4
-19 -13z"/>
<path d="M2544 1182 c6 -11 -5 -26 -29 -41 -18 -11 -16 -12 14 -8 26 3 35 0
39 -15 2 -10 8 -18 13 -18 5 0 9 -6 9 -14 0 -25 18 -28 40 -6 17 17 24 19 35
10 17 -14 31 -7 38 20 6 22 -7 27 -20 8 -4 -7 -17 -14 -28 -14 -11 -1 -28 -5
-37 -9 -14 -5 -18 -2 -18 13 0 11 -7 25 -16 33 -8 7 -13 21 -11 31 4 13 0 18
-15 18 -10 0 -17 -4 -14 -8z"/>
<path d="M1447 1163 c-3 -5 -8 -42 -12 -83 -4 -41 -11 -77 -16 -78 -5 -2 -7
-8 -4 -12 3 -5 -3 -18 -15 -30 -24 -24 -25 -30 -5 -30 12 0 13 -4 6 -18 -8
-15 -8 -50 -1 -59 3 -4 7 -20 9 -33 0 -5 5 -10 9 -10 8 0 27 135 38 278 6 74
4 96 -9 75z"/>
<path d="M30 1114 c0 -18 24 -44 40 -44 26 0 25 7 -2 31 -23 18 -38 24 -38 13z"/>
<path d="M2200 1111 c0 -16 41 -40 57 -34 19 8 10 28 -13 28 -10 0 -25 4 -31
8 -8 5 -13 4 -13 -2z"/>
<path d="M2812 1111 c-11 -6 -10 -11 3 -25 25 -24 55 -39 55 -26 0 6 -7 13
-15 16 -8 4 -15 15 -15 25 0 21 -8 23 -28 10z"/>
<path d="M354 1101 c-5 -5 26 -41 36 -41 4 0 10 11 12 24 4 20 1 23 -19 22
-14 0 -27 -3 -29 -5z"/>
<path d="M2897 1073 c-4 -20 -5 -39 -2 -41 8 -9 25 10 25 28 0 10 10 26 22 34
22 16 22 16 -8 16 -28 0 -32 -4 -37 -37z"/>
<path d="M2302 1092 c-7 -2 -12 -10 -12 -17 0 -8 -9 -20 -20 -28 -20 -14 -20
-14 4 -31 33 -21 34 -21 34 10 0 30 19 46 44 38 22 -7 39 3 32 19 -4 12 -57
18 -82 9z"/>
<path d="M2730 1089 c0 -8 -12 -25 -25 -38 -28 -26 -35 -64 -10 -55 9 4 15 11
14 18 -4 30 1 40 13 28 6 -6 11 -32 11 -57 0 -42 2 -46 21 -41 12 3 26 6 33 6
6 0 -1 13 -16 29 -33 36 -39 81 -11 88 20 5 28 23 11 23 -5 0 -16 3 -25 6 -10
4 -16 1 -16 -7z"/>
<path d="M2491 1070 c21 -32 35 -35 42 -10 3 13 0 20 -8 20 -7 0 -22 3 -32 7
-17 7 -17 6 -2 -17z"/>
<path d="M420 1035 c0 -19 17 -45 30 -45 3 0 5 15 5 33 0 24 -4 33 -17 33 -12
0 -18 -8 -18 -21z"/>
<path d="M2788 1044 c-3 -3 -4 -13 -1 -24 7 -26 41 -32 53 -9 9 15 8 17 -6 12
-10 -4 -22 0 -29 10 -7 9 -14 14 -17 11z"/>
<path d="M2595 1030 c-3 -5 1 -23 10 -40 12 -23 13 -30 3 -32 -49 -6 -74 -4
-81 6 -5 6 -5 1 -2 -12 5 -15 1 -24 -10 -29 -22 -8 -37 17 -22 37 6 8 2 7 -9
-3 -19 -18 -19 -19 10 -42 23 -18 27 -27 18 -37 -8 -11 -7 -14 8 -14 15 0 18
5 14 23 -7 28 19 42 41 23 9 -7 19 -9 23 -5 4 4 1 10 -5 12 -23 8 -14 26 10
19 12 -4 27 -8 32 -9 21 -5 35 -19 29 -29 -5 -7 -2 -8 6 -3 10 6 12 4 7 -8 -3
-9 0 -27 6 -41 11 -19 17 -22 31 -14 15 8 16 12 5 19 -11 6 -11 11 -2 20 9 9
9 15 -2 25 -7 8 -18 14 -24 14 -6 0 -11 6 -11 14 0 7 -9 16 -19 19 -14 3 -18
11 -15 24 3 11 -2 27 -10 36 -9 8 -16 20 -16 26 0 14 -17 14 -25 1z"/>
<path d="M2491 1006 c7 -14 19 -26 27 -26 13 0 13 3 0 22 -22 33 -41 36 -27 4z"/>
<path d="M2200 987 c0 -9 7 -17 15 -17 9 0 18 -7 21 -15 4 -8 11 -15 18 -15 6
0 17 -9 24 -20 11 -18 10 -25 -6 -48 -14 -20 -17 -33 -11 -49 6 -17 5 -23 -6
-23 -8 0 -15 5 -15 11 0 5 -4 8 -10 4 -17 -10 1 -35 26 -35 31 0 32 -27 2 -40
l-23 -9 22 0 c28 -1 42 -40 19 -56 -8 -7 -14 -14 -12 -16 2 -2 6 -16 10 -31 6
-25 4 -28 -21 -29 l-28 -1 30 -7 c24 -5 30 -12 30 -33 0 -16 4 -24 11 -21 17
6 28 -16 15 -31 -6 -7 -9 -21 -5 -29 3 -9 -3 -25 -13 -36 -17 -18 -22 -19 -38
-7 -23 17 -58 9 -51 -11 3 -8 6 -17 6 -19 0 -2 13 -4 29 -4 16 0 41 -4 55 -10
28 -10 34 -2 14 18 -9 9 -8 15 7 26 13 9 19 26 19 52 -1 81 -22 154 -46 154
-7 0 -7 4 -1 13 15 18 22 56 13 62 -5 3 -5 17 -1 32 5 17 2 38 -7 56 -17 35
-3 80 23 71 25 -10 18 30 -7 41 -18 8 -22 17 -20 43 2 26 -2 32 -18 32 -12 0
-20 -7 -20 -17 0 -14 -4 -12 -25 7 -21 19 -25 21 -25 7z"/>
<path d="M2880 986 c0 -9 8 -16 19 -16 11 0 28 -3 38 -7 16 -6 16 -5 4 10 -7
9 -17 14 -23 11 -5 -3 -15 0 -23 6 -12 10 -15 9 -15 -4z"/>
<path d="M2427 940 c-3 -14 -14 -20 -31 -20 -26 0 -32 -13 -20 -44 9 -22 24
-20 24 3 0 11 5 23 11 27 14 8 29 -14 22 -33 -3 -7 1 -13 9 -13 25 0 29 13 11
32 -14 16 -15 23 -5 38 15 25 15 30 -2 30 -7 0 -16 -9 -19 -20z"/>
<path d="M610 941 c17 -5 27 -16 30 -36 5 -25 7 -27 13 -12 11 29 -10 57 -41
56 l-27 -1 25 -7z"/>
<path d="M2760 924 c0 -19 24 -44 43 -44 l22 -1 -22 -18 c-13 -11 -23 -25 -23
-32 0 -8 12 0 28 16 30 33 36 75 12 83 -12 4 -13 3 -2 -10 10 -13 10 -17 -4
-22 -20 -8 -34 1 -34 20 0 8 -4 14 -10 14 -5 0 -10 -3 -10 -6z"/>
<path d="M2562 840 c-12 -12 -22 -24 -22 -29 0 -14 37 -51 44 -44 3 3 6 -1 6
-11 0 -22 -26 -32 -44 -17 -9 8 -16 8 -20 2 -7 -11 57 -26 72 -17 16 10 -8 88
-24 82 -8 -3 -14 -1 -14 4 0 6 4 10 9 10 9 0 24 30 18 36 -2 2 -13 -5 -25 -16z"/>
<path d="M2831 818 c-19 -37 -20 -40 -3 -25 10 9 23 17 28 17 12 0 34 36 27
44 -15 14 -31 3 -52 -36z"/>
<path d="M2490 825 c0 -16 -1 -16 -38 -20 -12 -1 -26 -6 -30 -10 -4 -4 1 -5
12 -3 10 1 23 -5 29 -14 9 -14 8 -21 -8 -33 -11 -8 -28 -13 -37 -11 -10 2 -18
0 -18 -5 0 -5 -7 -9 -15 -9 -8 0 -15 7 -15 15 0 8 -7 15 -15 15 -25 0 -17 -17
20 -46 43 -32 44 -40 5 -47 -36 -8 -40 -27 -6 -27 26 0 56 37 56 69 0 14 9 23
25 27 29 7 40 24 49 77 4 23 3 37 -4 37 -5 0 -10 -7 -10 -15z"/>
<path d="M2135 820 c-3 -5 -1 -10 5 -10 6 0 8 -4 5 -10 -3 -5 -2 -10 2 -10 11
0 33 21 33 32 0 12 -38 10 -45 -2z"/>
<path d="M2362 818 c-17 -17 -15 -31 4 -24 13 5 15 1 10 -18 -3 -14 -2 -27 3
-30 5 -3 11 11 14 31 9 50 -5 67 -31 41z"/>
<path d="M509 788 c27 -31 41 -35 41 -13 0 8 -8 15 -18 15 -10 0 -24 6 -32 13
-8 6 -4 0 9 -15z"/>
<path d="M2718 793 c-24 -6 -27 -35 -6 -57 9 -10 15 -23 12 -28 -3 -4 2 -11
10 -14 22 -8 20 -32 -5 -73 -18 -30 -19 -35 -5 -50 19 -21 21 -48 4 -53 -6 -2
-8 -10 -4 -16 5 -9 11 -8 23 4 15 15 18 14 35 -8 10 -12 16 -31 14 -40 -3 -12
5 -19 25 -23 32 -7 36 -17 14 -35 -8 -7 -15 -17 -15 -23 0 -5 8 -3 18 6 24 22
32 21 32 -2 0 -12 7 -18 18 -17 9 0 16 -5 14 -11 -3 -17 10 -16 34 2 18 14 18
14 -4 15 -19 0 -22 4 -17 22 6 17 4 20 -10 15 -19 -8 -75 42 -75 67 0 8 -9 20
-20 26 -11 6 -20 17 -20 25 0 8 -8 18 -17 24 -26 14 -19 105 10 126 23 17 21
24 -9 35 -15 6 -22 14 -18 21 4 7 -1 18 -11 25 -10 7 -15 20 -12 29 4 8 5 14
4 14 -1 -1 -10 -3 -19 -6z"/>
<path d="M425 767 c-10 -39 -1 -52 15 -23 10 20 11 29 2 38 -8 8 -13 4 -17
-15z"/>
<path d="M2835 756 c-19 -14 -29 -66 -13 -66 4 0 8 4 8 9 0 5 11 9 25 9 14 0
25 -4 25 -9 0 -8 -15 -13 -32 -10 -5 0 -8 -6 -8 -14 0 -19 11 -19 35 -1 10 7
16 20 12 28 -3 9 0 21 6 28 9 10 7 11 -10 6 -17 -5 -22 -2 -25 14 -3 19 -5 20
-23 6z"/>
<path d="M2952 728 c-17 -17 -15 -31 3 -25 8 4 17 2 20 -4 7 -11 25 -3 25 12
0 5 -6 9 -14 9 -8 0 -16 5 -18 10 -2 7 -8 6 -16 -2z"/>
<path d="M2650 690 c0 -6 -11 -15 -25 -20 -14 -5 -25 -16 -25 -25 0 -22 27
-18 33 5 3 11 12 20 21 20 9 0 16 7 16 15 0 8 -4 15 -10 15 -5 0 -10 -5 -10
-10z"/>
<path d="M2042 649 c-18 -29 -8 -35 16 -11 11 11 18 23 15 26 -11 10 -18 7
-31 -15z"/>
<path d="M2940 653 c0 -12 -8 -23 -20 -26 -13 -3 -20 0 -20 9 0 8 -4 14 -10
14 -16 0 -11 -18 11 -39 13 -12 17 -21 10 -26 -6 -3 -11 -21 -11 -39 0 -17 -5
-37 -12 -44 -9 -9 -9 -12 0 -12 7 0 15 7 18 15 8 20 34 19 34 -2 0 -15 2 -14
19 3 22 23 18 34 -10 27 -19 -5 -20 -3 -13 33 4 22 11 50 16 63 5 15 5 28 -2
35 -7 7 -10 4 -10 -11z"/>
<path d="M2107 624 c-10 -13 -22 -22 -26 -20 -12 8 -34 -11 -27 -22 4 -8 18
-5 39 9 18 10 40 22 50 25 21 8 22 20 1 28 -20 8 -16 9 -37 -20z"/>
<path d="M2519 643 c-1 -5 -1 -16 0 -25 3 -27 -32 -40 -58 -22 -19 14 -22 14
-27 -1 -8 -19 13 -46 31 -39 23 9 57 -34 53 -67 -1 -16 2 -33 7 -37 17 -12 38
-56 40 -82 2 -14 6 -37 10 -52 8 -29 8 -29 -78 -43 -27 -4 -37 -3 -35 7 2 9
-12 12 -57 10 -33 -2 -67 -5 -77 -8 -9 -3 -19 0 -23 6 -3 5 -28 10 -55 10 -27
0 -52 5 -56 11 -4 7 -26 10 -58 7 -28 -3 -88 -3 -133 1 -44 3 -92 3 -105 -1
-21 -6 -20 -6 7 -7 54 -2 238 -20 315 -32 41 -6 100 -13 130 -15 30 -1 84 -5
120 -8 49 -4 78 -1 120 13 43 15 49 20 28 20 -17 1 -28 7 -28 15 0 7 -3 28 -6
45 -5 24 -3 31 10 31 9 0 16 -6 16 -14 0 -22 19 -30 35 -16 21 17 19 30 -5 30
-11 0 -23 7 -26 15 -5 11 -10 13 -19 5 -9 -7 -15 -3 -23 16 -16 33 -15 44 3
44 8 0 15 5 15 10 0 6 -11 10 -25 10 -20 0 -25 5 -25 25 0 13 -7 28 -15 33
-14 7 -14 11 0 38 17 33 20 74 5 74 -5 0 -11 -3 -11 -7z"/>
<path d="M2589 569 c13 -11 30 -19 37 -19 11 0 12 4 2 19 -6 10 -23 19 -37 19
l-25 0 23 -19z"/>
<path d="M340 531 c-7 -15 -8 -27 -1 -39 10 -16 10 -16 11 0 0 9 7 21 16 26
13 7 14 10 0 21 -12 10 -17 9 -26 -8z"/>
<path d="M2400 523 c0 -5 7 -19 16 -31 14 -21 14 -23 -11 -32 -30 -11 -29 -35
1 -35 10 0 23 -10 29 -22 6 -15 18 -23 35 -23 17 0 21 3 12 9 -20 12 -42 60
-31 66 19 12 8 41 -21 58 -16 10 -30 14 -30 10z"/>
<path d="M194 492 c1 -23 21 -30 84 -31 50 -1 52 0 42 20 -11 19 -13 19 -24 4
-7 -10 -18 -14 -30 -9 -14 5 -15 9 -4 16 9 7 6 8 -11 4 -13 -3 -32 -1 -41 4
-14 7 -17 6 -16 -8z"/>
<path d="M396 493 c-10 -31 0 -43 35 -43 35 0 38 15 5 24 -14 3 -26 14 -28 24
-4 14 -5 13 -12 -5z"/>
<path d="M838 483 c-2 -13 -17 -17 -73 -18 -84 -3 -85 -3 -85 -12 0 -6 151 -8
219 -3 7 0 -23 31 -40 41 -13 7 -18 5 -21 -8z"/>
<path d="M0 469 c0 -5 4 -7 10 -4 5 3 15 -3 22 -15 16 -26 38 -26 38 0 0 12
-5 17 -14 14 -8 -3 -17 -1 -21 5 -8 14 -35 14 -35 0z"/>
<path d="M479 464 c-10 -12 4 -14 90 -14 73 0 100 3 95 11 -4 8 -25 9 -58 5
-29 -3 -66 -2 -84 3 -23 7 -34 6 -43 -5z"/>
<path d="M2724 467 c-6 -7 -13 -24 -17 -37 -6 -24 -6 -24 9 -5 24 31 36 55 27
55 -4 -1 -13 -6 -19 -13z"/>
<path d="M2890 445 c0 -10 7 -14 23 -11 12 3 26 5 30 5 5 1 5 6 2 11 -10 16
-55 12 -55 -5z"/>
<path d="M2970 420 c0 -11 7 -20 15 -20 8 0 15 9 15 20 0 11 -7 20 -15 20 -8
0 -15 -9 -15 -20z"/>
<path d="M360 400 c-28 -6 -21 -8 37 -9 39 0 75 -6 78 -11 4 -7 -34 -10 -117
-8 -92 2 -122 6 -120 16 1 6 -5 12 -13 12 -8 0 -14 -5 -13 -12 2 -8 -29 -11
-105 -12 -83 -1 -107 -4 -107 -14 0 -11 38 -13 208 -11 114 2 258 -1 320 -5
81 -6 112 -5 112 3 0 9 -74 17 -117 12 -23 -3 -24 19 -1 28 18 8 10 10 -39 10
-34 1 -67 3 -75 5 -7 2 -29 0 -48 -4z"/>
<path d="M2737 380 c-9 -11 -17 -32 -17 -45 0 -22 3 -25 25 -19 15 4 25 2 25
-5 0 -6 5 -11 10 -11 18 0 10 17 -15 30 -28 15 -33 37 -10 42 9 2 11 8 7 15
-6 9 -12 7 -25 -7z"/>
<path d="M675 350 c44 -11 75 -11 75 0 0 6 -23 9 -52 9 -45 -1 -49 -2 -23 -9z"/>
<path d="M865 350 c-4 -6 12 -10 42 -10 35 0 44 3 33 10 -20 13 -67 13 -75 0z"/>
<path d="M2205 351 c-17 -7 -14 -9 15 -13 43 -7 68 0 48 13 -16 10 -36 10 -63
0z"/>
<path d="M2294 349 c-9 -15 17 -20 80 -18 34 1 68 -1 74 -5 7 -4 16 -5 21 -2
5 4 20 2 33 -3 32 -12 61 -1 47 19 -8 11 -12 12 -16 3 -2 -7 -11 -13 -19 -13
-8 0 -14 6 -14 13 0 9 -27 12 -100 13 -56 0 -103 -3 -106 -7z"/>
<path d="M2971 331 c-37 -10 -38 -31 -2 -31 24 0 31 4 31 20 0 11 -1 20 -2 19
-2 -1 -14 -4 -27 -8z"/>
<path d="M80 311 c-55 -5 -76 -10 -78 -21 -2 -13 20 -15 155 -14 96 0 169 5
186 12 16 7 43 12 60 12 18 0 39 5 47 10 16 10 -235 11 -370 1z"/>
<path d="M2834 270 c3 -22 8 -25 40 -24 20 1 40 4 44 8 11 12 -22 25 -46 19
-15 -3 -28 0 -33 8 -6 10 -8 6 -5 -11z"/>
<path d="M2020 254 c0 -8 5 -14 10 -14 6 0 11 0 13 -1 23 -8 87 -14 87 -8 0
13 -42 33 -77 35 -23 2 -33 -1 -33 -12z"/>
<path d="M2945 250 c28 -12 55 -12 55 0 0 6 -17 10 -37 9 -31 0 -34 -2 -18 -9z"/>
<path d="M2179 236 c8 -10 9 -16 1 -21 -19 -12 -10 -31 16 -33 14 -1 32 -9 41
-18 10 -9 25 -13 38 -10 15 4 35 -3 59 -19 20 -14 48 -28 62 -31 24 -6 25 -5
15 15 -11 20 -33 32 -159 86 -23 10 -47 24 -53 32 -6 7 -16 13 -21 13 -6 0 -6
-6 1 -14z"/>
<path d="M0 220 c0 -16 5 -20 18 -16 9 3 38 8 64 12 64 9 53 20 -22 23 -55 2
-60 0 -60 -19z"/>
<path d="M2376 222 c-3 -6 32 -17 82 -26 103 -19 292 -29 292 -15 0 8 -100 15
-138 10 -8 -1 -20 3 -27 9 -7 6 -19 10 -27 9 -13 -3 -97 7 -150 17 -14 3 -29
1 -32 -4z"/>
<path d="M2015 211 c-3 -5 -2 -12 3 -15 12 -7 52 4 52 15 0 12 -47 12 -55 0z"/>
<path d="M306 180 c-60 -23 -87 -47 -41 -35 48 13 69 11 72 -5 4 -19 -38 -39
-63 -30 -14 6 -20 2 -25 -14 -4 -16 -13 -21 -37 -19 -61 2 -80 43 -21 43 20 0
29 4 27 13 -6 17 -33 20 -49 5 -14 -13 -45 -26 -126 -55 -24 -9 -43 -19 -43
-23 0 -10 37 0 94 24 48 20 56 20 56 0 0 -10 -6 -14 -14 -11 -11 4 -11 1 -2
-19 6 -14 19 -24 31 -24 19 1 19 1 1 11 -29 17 -2 27 52 18 40 -6 49 -4 62 12
14 17 31 25 63 28 4 1 7 10 7 21 0 11 6 20 13 20 7 1 4 6 -6 15 -18 13 -18 14
3 17 23 3 29 22 8 25 -7 1 -35 -6 -62 -17z"/>
<path d="M2905 191 c-3 -6 -25 -11 -48 -11 -89 -1 -92 -2 -77 -10 8 -4 61 -10
118 -14 98 -7 102 -6 102 14 0 15 -6 20 -29 20 -16 0 -36 3 -44 6 -8 3 -18 1
-22 -5z"/>
<path d="M2460 142 c0 -16 41 -52 58 -52 10 0 22 -4 28 -9 5 -5 38 -19 74 -31
36 -12 75 -28 87 -36 13 -8 46 -14 75 -13 l53 1 -65 14 c-35 8 -69 19 -74 24
-6 6 -17 10 -26 10 -9 0 -40 11 -68 25 -29 14 -56 25 -62 25 -5 0 -10 5 -10
10 0 6 -7 10 -15 10 -8 0 -15 7 -15 15 0 8 -9 15 -20 15 -11 0 -20 -4 -20 -8z"/>
<path d="M2670 130 c0 -5 12 -10 28 -10 15 0 88 -18 162 -40 74 -22 136 -40
137 -40 2 0 3 13 3 29 0 32 6 30 -170 56 -113 17 -160 19 -160 5z"/>
<path d="M2456 73 c16 -17 16 -18 -6 -23 -13 -3 -25 -11 -28 -18 -6 -19 20
-14 44 9 23 21 66 19 61 -3 -1 -6 14 -15 33 -20 46 -12 99 -20 80 -12 -8 4
-53 24 -98 45 -92 43 -112 48 -86 22z"/>
<path d="M220 14 l-35 -14 44 3 c25 1 46 8 49 15 5 15 -12 14 -58 -4z"/>
<path d="M85 10 c-26 -7 -24 -8 20 -9 36 0 46 2 35 9 -8 5 -17 9 -20 9 -3 -1
-18 -5 -35 -9z"/>
</g>
</svg>
